<svg width="86" height="50" viewBox="0 0 86 50" fill="none" xmlns="http://www.w3.org/2000/svg">
<path d="M39.3872 1.1153H1.03937V49.1153H85.0394" stroke="white" stroke-width="1.5"/>
<path d="M18.7505 19.9318H14.6518L13.9099 21.6726C13.8267 21.8587 13.7606 21.9689 13.7116 22.0032C13.6626 22.0325 13.5378 22.0472 13.337 22.0472H12.3454C12.1691 22.0472 12.0515 22.035 11.9928 22.0105C11.885 21.9615 11.8312 21.8783 11.8312 21.7608C11.8312 21.702 11.8655 21.5894 11.934 21.4229L15.8565 12.1897C15.876 12.1408 15.8932 12.0991 15.9079 12.0649C15.9519 11.9473 16.0009 11.8763 16.0548 11.8518C16.1135 11.8225 16.2384 11.8078 16.4294 11.8078H17.0684C17.2741 11.8078 17.4014 11.8249 17.4504 11.8592C17.4994 11.8935 17.563 12.0061 17.6414 12.1971L21.4536 21.4229C21.5222 21.5894 21.5565 21.702 21.5565 21.7608C21.5565 21.8685 21.5173 21.9444 21.4389 21.9885C21.3655 22.0277 21.2333 22.0472 21.0423 22.0472H20.0286C19.823 22.0472 19.6932 22.0301 19.6393 21.9958C19.5904 21.9615 19.5291 21.8489 19.4557 21.6579L18.7505 19.9318ZM18.1409 18.3452L16.7306 14.7386L15.2762 18.3452H18.1409Z" fill="white"/>
<path d="M22.8786 21.5257V12.5423C22.8786 12.3121 22.908 12.1677 22.9668 12.1089C23.0256 12.0502 23.17 12.0208 23.4002 12.0208H25.7433C27.2075 12.0208 28.4097 12.4052 29.3499 13.174C29.9572 13.6735 30.4199 14.293 30.7382 15.0324C31.0075 15.6641 31.1422 16.3252 31.1422 17.0156C31.1422 18.0587 30.8484 19.0087 30.2608 19.8657C29.6584 20.7471 28.8749 21.3641 27.9102 21.7167C27.303 21.9371 26.5758 22.0472 25.7287 22.0472H23.4002C23.17 22.0472 23.0256 22.0179 22.9668 21.9591C22.908 21.9003 22.8786 21.7559 22.8786 21.5257ZM24.8325 20.3505H25.354C25.9906 20.3505 26.5195 20.2892 26.9406 20.1668C27.3667 20.0395 27.7364 19.8363 28.0498 19.5572C28.3877 19.2535 28.6521 18.8789 28.8431 18.4333C29.0341 17.9828 29.1296 17.5151 29.1296 17.0303C29.1296 16.3595 28.9533 15.7449 28.6007 15.1866C28.2726 14.6676 27.8539 14.293 27.3446 14.0628C26.8403 13.8326 26.1767 13.7176 25.354 13.7176H24.8325V20.3505Z" fill="white"/>
<path d="M37.0259 12.5423V17.7575C37.0259 18.2717 37.0455 18.6463 37.0846 18.8814C37.1287 19.1115 37.2144 19.3368 37.3417 19.5572C37.5131 19.8461 37.7555 20.0738 38.0689 20.2403C38.3823 20.4068 38.7276 20.49 39.1046 20.49C39.4817 20.49 39.8269 20.4068 40.1403 20.2403C40.4537 20.0738 40.6961 19.8461 40.8675 19.5572C40.9948 19.3368 41.0781 19.1115 41.1173 18.8814C41.1613 18.6463 41.1834 18.2717 41.1834 17.7575V12.5423C41.1834 12.3121 41.2127 12.1677 41.2715 12.1089C41.3303 12.0502 41.4723 12.0208 41.6975 12.0208H42.6157C42.8459 12.0208 42.9903 12.0502 43.0491 12.1089C43.1079 12.1677 43.1372 12.3121 43.1372 12.5423V18.1468C43.1372 19.2927 42.8924 20.1864 42.4027 20.8279C42.0256 21.3225 41.5164 21.6947 40.8749 21.9444C40.3117 22.1648 39.7216 22.2749 39.1046 22.2749C38.1742 22.2749 37.3564 22.0497 36.6513 21.5992C35.9412 21.1389 35.4735 20.4998 35.2483 19.682C35.1308 19.2609 35.072 18.7492 35.072 18.1468V12.5423C35.072 12.3121 35.1014 12.1677 35.1601 12.1089C35.2189 12.0502 35.3634 12.0208 35.5935 12.0208H36.5117C36.737 12.0208 36.879 12.0502 36.9377 12.1089C36.9965 12.1677 37.0259 12.3121 37.0259 12.5423Z" fill="white"/>
<path d="M50.9527 13.3576L50.5781 13.8498C50.4361 14.0408 50.3112 14.1363 50.2035 14.1363C50.1496 14.1363 50.1031 14.124 50.0639 14.0995C50.0248 14.075 49.917 13.9869 49.7407 13.8351C49.6281 13.7469 49.4592 13.6686 49.2339 13.6C49.0087 13.5315 48.8005 13.4972 48.6096 13.4972C48.1786 13.4972 47.8285 13.6196 47.5592 13.8645C47.3192 14.0799 47.1992 14.3297 47.1992 14.6137C47.1992 14.8879 47.3045 15.1132 47.5151 15.2895C47.7306 15.4609 48.1321 15.6543 48.7197 15.8698C49.278 16.0705 49.6942 16.2419 49.9685 16.3839C50.2427 16.5211 50.4949 16.6851 50.725 16.8761C51.3176 17.3756 51.6138 18.0783 51.6138 18.9842C51.6138 20.0664 51.2343 20.9136 50.4753 21.5257C49.8387 22.035 49.0527 22.2896 48.1174 22.2896C47.3633 22.2896 46.6802 22.106 46.0681 21.7387C45.74 21.5429 45.4412 21.3103 45.1719 21.0409C44.9075 20.7667 44.7753 20.561 44.7753 20.4239C44.7753 20.3358 44.8561 20.2133 45.0177 20.0566L45.5171 19.5718C45.6787 19.4151 45.7987 19.3368 45.8771 19.3368C45.975 19.3368 46.0656 19.3858 46.1488 19.4837C46.3741 19.7628 46.5186 19.9318 46.5822 19.9905C46.6459 20.0493 46.7512 20.1203 46.8981 20.2035C47.2653 20.4043 47.6522 20.5047 48.0587 20.5047C48.563 20.5047 48.9572 20.3431 49.2413 20.0199C49.4812 19.7506 49.6012 19.4421 49.6012 19.0944C49.6012 18.6782 49.4175 18.3403 49.0503 18.0807C48.874 17.9534 48.4112 17.7526 47.662 17.4784C46.8981 17.2042 46.3349 16.9128 45.9726 16.6043C45.4486 16.1636 45.1866 15.5539 45.1866 14.7753C45.1866 13.7176 45.6273 12.9096 46.5088 12.3513C47.0376 12.0183 47.6424 11.8518 48.3231 11.8518C48.803 11.8518 49.2927 11.9375 49.7922 12.1089C50.2965 12.2754 50.7054 12.4933 51.0188 12.7627C51.1021 12.8312 51.1437 12.9145 51.1437 13.0124C51.1437 13.081 51.0801 13.196 50.9527 13.3576Z" fill="white"/>
<path d="M55.3012 12.5423V17.7575C55.3012 18.2717 55.3208 18.6463 55.36 18.8814C55.404 19.1115 55.4897 19.3368 55.6171 19.5572C55.7885 19.8461 56.0308 20.0738 56.3443 20.2403C56.6577 20.4068 57.0029 20.49 57.38 20.49C57.757 20.49 58.1022 20.4068 58.4157 20.2403C58.7291 20.0738 58.9715 19.8461 59.1428 19.5572C59.2702 19.3368 59.3534 19.1115 59.3926 18.8814C59.4367 18.6463 59.4587 18.2717 59.4587 17.7575V12.5423C59.4587 12.3121 59.4881 12.1677 59.5468 12.1089C59.6056 12.0502 59.7476 12.0208 59.9729 12.0208H60.8911C61.1212 12.0208 61.2657 12.0502 61.3244 12.1089C61.3832 12.1677 61.4126 12.3121 61.4126 12.5423V18.1468C61.4126 19.2927 61.1677 20.1864 60.678 20.8279C60.301 21.3225 59.7917 21.6947 59.1502 21.9444C58.587 22.1648 57.997 22.2749 57.38 22.2749C56.4495 22.2749 55.6317 22.0497 54.9266 21.5992C54.2165 21.1389 53.7489 20.4998 53.5236 19.682C53.4061 19.2609 53.3473 18.7492 53.3473 18.1468V12.5423C53.3473 12.3121 53.3767 12.1677 53.4355 12.1089C53.4942 12.0502 53.6387 12.0208 53.8689 12.0208H54.787C55.0123 12.0208 55.1543 12.0502 55.2131 12.1089C55.2718 12.1677 55.3012 12.3121 55.3012 12.5423Z" fill="white"/>
<path d="M69.1252 18.3966L71.821 12.2044C71.8993 12.0183 71.963 11.9106 72.012 11.8812C72.0609 11.8469 72.1883 11.8298 72.3939 11.8298H72.8493C73.0697 11.8298 73.2068 11.8543 73.2607 11.9033C73.3195 11.9473 73.366 12.0771 73.4003 12.2926L74.8987 21.4816C74.9232 21.6188 74.9354 21.7094 74.9354 21.7534C74.9354 21.8661 74.8987 21.9444 74.8253 21.9885C74.7518 22.0277 74.6171 22.0472 74.4213 22.0472H73.5031C73.2827 22.0472 73.1432 22.0228 73.0844 21.9738C73.0305 21.9248 72.9889 21.7926 72.9595 21.5771L72.1295 15.8698L69.5292 21.8048C69.5145 21.844 69.4974 21.8856 69.4778 21.9297C69.4044 22.0962 69.277 22.1795 69.0959 22.1795C68.9734 22.1795 68.8902 22.1599 68.8461 22.1207C68.8069 22.0864 68.7482 21.9787 68.6698 21.7975L66.165 15.8698L65.2322 21.5845C65.2224 21.6383 65.215 21.6824 65.2101 21.7167C65.1857 21.8587 65.1416 21.9493 65.0779 21.9885C65.0143 22.0277 64.882 22.0472 64.6813 22.0472H63.7704C63.5746 22.0472 63.4399 22.0277 63.3664 21.9885C63.293 21.9444 63.2563 21.8636 63.2563 21.7461C63.2563 21.702 63.2685 21.6114 63.293 21.4743L64.9751 12.2926C65.0143 12.0771 65.0608 11.9473 65.1147 11.9033C65.1685 11.8543 65.3056 11.8298 65.526 11.8298H65.9741C66.1797 11.8298 66.3071 11.8469 66.356 11.8812C66.405 11.9106 66.4711 12.0208 66.5543 12.2118L69.1252 18.3966Z" fill="white"/>
<path d="M14.7253 29.0033V31.229H17.6634C17.8936 31.229 18.038 31.2584 18.0968 31.3171C18.1556 31.3759 18.1849 31.5203 18.1849 31.7505V32.4042C18.1849 32.6344 18.1556 32.7789 18.0968 32.8376C18.038 32.8964 17.8936 32.9258 17.6634 32.9258H14.7253V35.6362H17.8103C18.0356 35.6362 18.1776 35.6656 18.2364 35.7244C18.2951 35.7831 18.3245 35.9276 18.3245 36.1577V36.8115C18.3245 37.0416 18.2951 37.1861 18.2364 37.2449C18.1776 37.3036 18.0356 37.333 17.8103 37.333H13.2929C13.0628 37.333 12.9183 37.3036 12.8595 37.2449C12.8008 37.1861 12.7714 37.0416 12.7714 36.8115V27.8281C12.7714 27.5979 12.8008 27.4534 12.8595 27.3947C12.9183 27.3359 13.0628 27.3065 13.2929 27.3065H17.8103C18.0307 27.3065 18.1727 27.3384 18.2364 27.402C18.2951 27.4608 18.3245 27.6028 18.3245 27.8281V28.4818C18.3245 28.712 18.2951 28.8564 18.2364 28.9152C18.1776 28.9739 18.0356 29.0033 17.8103 29.0033H14.7253Z" fill="white"/>
<path d="M20.2196 36.8115V27.8281C20.2196 27.5979 20.249 27.4534 20.3078 27.3947C20.3665 27.3359 20.511 27.3065 20.7411 27.3065H23.0843C24.5485 27.3065 25.7507 27.6909 26.6909 28.4598C27.2981 28.9593 27.7609 29.5787 28.0792 30.3181C28.3485 30.9499 28.4832 31.6109 28.4832 32.3014C28.4832 33.3445 28.1894 34.2945 27.6017 35.1514C26.9994 36.0329 26.2159 36.6499 25.2512 37.0025C24.644 37.2228 23.9168 37.333 23.0696 37.333H20.7411C20.511 37.333 20.3665 37.3036 20.3078 37.2449C20.249 37.1861 20.2196 37.0416 20.2196 36.8115ZM22.1735 35.6362H22.695C23.3316 35.6362 23.8605 35.575 24.2816 35.4526C24.7076 35.3253 25.0774 35.122 25.3908 34.8429C25.7287 34.5393 25.9931 34.1647 26.1841 33.7191C26.3751 33.2685 26.4705 32.8009 26.4705 32.3161C26.4705 31.6452 26.2943 31.0307 25.9417 30.4724C25.6136 29.9533 25.1949 29.5787 24.6856 29.3486C24.1812 29.1184 23.5177 29.0033 22.695 29.0033H22.1735V35.6362Z" fill="white"/>
<path d="M32.2514 27.8281V36.8115C32.2514 37.0416 32.222 37.1861 32.1632 37.2449C32.1045 37.3036 31.9624 37.333 31.7372 37.333H30.819C30.5889 37.333 30.4444 37.3036 30.3856 37.2449C30.3269 37.1861 30.2975 37.0416 30.2975 36.8115V27.8281C30.2975 27.5979 30.3269 27.4534 30.3856 27.3947C30.4444 27.3359 30.5889 27.3065 30.819 27.3065H31.7372C31.9624 27.3065 32.1045 27.3359 32.1632 27.3947C32.222 27.4534 32.2514 27.5979 32.2514 27.8281Z" fill="white"/>
<path d="M35.7698 29.0033H34.0436C33.8135 29.0033 33.669 28.9739 33.6103 28.9152C33.5515 28.8564 33.5221 28.712 33.5221 28.4818V27.8281C33.5221 27.5979 33.5515 27.4534 33.6103 27.3947C33.669 27.3359 33.8135 27.3065 34.0436 27.3065H39.4572C39.6825 27.3065 39.8269 27.3384 39.8906 27.402C39.9493 27.4608 39.9787 27.6028 39.9787 27.8281V28.4818C39.9787 28.712 39.9493 28.8564 39.8906 28.9152C39.8318 28.9739 39.6874 29.0033 39.4572 29.0033H37.7237V36.8115C37.7237 37.0416 37.6943 37.1861 37.6355 37.2449C37.5768 37.3036 37.4323 37.333 37.2022 37.333H36.2913C36.0612 37.333 35.9167 37.3036 35.858 37.2449C35.7992 37.1861 35.7698 37.0416 35.7698 36.8115V29.0033Z" fill="white"/>
<path d="M43.2107 27.8281V36.8115C43.2107 37.0416 43.1813 37.1861 43.1225 37.2449C43.0638 37.3036 42.9218 37.333 42.6965 37.333H41.7783C41.5482 37.333 41.4037 37.3036 41.345 37.2449C41.2862 37.1861 41.2568 37.0416 41.2568 36.8115V27.8281C41.2568 27.5979 41.2862 27.4534 41.345 27.3947C41.4037 27.3359 41.5482 27.3065 41.7783 27.3065H42.6965C42.9218 27.3065 43.0638 27.3359 43.1225 27.3947C43.1813 27.4534 43.2107 27.5979 43.2107 27.8281Z" fill="white"/>
<path d="M50.3945 27.0788C51.9713 27.0788 53.2837 27.6395 54.3316 28.7609C55.2669 29.7599 55.7346 30.9474 55.7346 32.3234C55.7346 33.2685 55.4971 34.1451 55.0221 34.9531C54.5373 35.7905 53.8689 36.4418 53.0168 36.907C52.2137 37.3428 51.3151 37.5607 50.321 37.5607C49.42 37.5607 48.5753 37.3526 47.7869 36.9363C46.8614 36.4516 46.1513 35.7635 45.6567 34.8723C45.2258 34.0986 45.0103 33.2245 45.0103 32.25C45.0103 30.7564 45.5882 29.4881 46.7438 28.4451C47.3217 27.9211 47.9827 27.5489 48.7271 27.3286C49.2902 27.1621 49.846 27.0788 50.3945 27.0788ZM50.3798 28.8638C49.4494 28.8638 48.661 29.2017 48.0146 29.8774C47.3584 30.5581 47.0303 31.3857 47.0303 32.3602C47.0303 32.7862 47.1184 33.2147 47.2947 33.6456C47.471 34.0716 47.711 34.4438 48.0146 34.7621C48.661 35.4379 49.4469 35.7758 50.3724 35.7758C51.3029 35.7758 52.0937 35.4379 52.745 34.7621C53.3963 34.0814 53.7219 33.2661 53.7219 32.3161C53.7219 31.8558 53.6363 31.4126 53.4649 30.9866C53.2935 30.5557 53.0535 30.1859 52.745 29.8774C52.0741 29.2017 51.2857 28.8638 50.3798 28.8638Z" fill="white"/>
<path d="M64.9971 34.057V27.8281C64.9971 27.5979 65.0265 27.4534 65.0853 27.3947C65.144 27.3359 65.2885 27.3065 65.5186 27.3065H66.4295C66.6596 27.3065 66.8041 27.3359 66.8629 27.3947C66.9216 27.4534 66.951 27.5979 66.951 27.8281V37.0171C66.951 37.2424 66.9216 37.3844 66.8629 37.4432C66.8041 37.5019 66.6596 37.5313 66.4295 37.5313H65.952C65.7659 37.5313 65.6533 37.5215 65.6141 37.5019C65.575 37.4873 65.4942 37.4114 65.3717 37.2742L59.4881 30.5532V36.8115C59.4881 37.0416 59.4587 37.1861 59.3999 37.2449C59.3412 37.3036 59.1992 37.333 58.9739 37.333H58.0557C57.8256 37.333 57.6811 37.3036 57.6224 37.2449C57.5636 37.1861 57.5342 37.0416 57.5342 36.8115V27.593C57.5342 27.3629 57.5636 27.2208 57.6224 27.167C57.6811 27.1082 57.8256 27.0788 58.0557 27.0788H58.5405C58.7266 27.0788 58.8368 27.0862 58.8711 27.1009C58.9102 27.1156 58.991 27.1939 59.1135 27.3359L64.9971 34.057Z" fill="white"/>
<path d="M74.8693 28.6434L74.4947 29.1355C74.3527 29.3265 74.2278 29.422 74.1201 29.422C74.0662 29.422 74.0197 29.4098 73.9805 29.3853C73.9414 29.3608 73.8336 29.2727 73.6573 29.1209C73.5447 29.0327 73.3758 28.9544 73.1505 28.8858C72.9253 28.8172 72.7171 28.783 72.5261 28.783C72.0952 28.783 71.7451 28.9054 71.4758 29.1502C71.2358 29.3657 71.1158 29.6154 71.1158 29.8995C71.1158 30.1737 71.2211 30.3989 71.4317 30.5752C71.6472 30.7466 72.0487 30.9401 72.6363 31.1555C73.1946 31.3563 73.6108 31.5277 73.885 31.6697C74.1593 31.8068 74.4115 31.9709 74.6416 32.1618C75.2342 32.6613 75.5304 33.364 75.5304 34.27C75.5304 35.3522 75.1509 36.1994 74.3919 36.8115C73.7553 37.3208 72.9693 37.5754 72.034 37.5754C71.2799 37.5754 70.5968 37.3918 69.9846 37.0245C69.6566 36.8286 69.3578 36.596 69.0885 36.3267C68.8241 36.0525 68.6919 35.8468 68.6919 35.7097C68.6919 35.6215 68.7727 35.4991 68.9343 35.3424L69.4337 34.8576C69.5953 34.7009 69.7153 34.6225 69.7937 34.6225C69.8916 34.6225 69.9822 34.6715 70.0654 34.7695C70.2907 35.0486 70.4352 35.2175 70.4988 35.2763C70.5625 35.3351 70.6678 35.4061 70.8147 35.4893C71.1819 35.6901 71.5688 35.7905 71.9752 35.7905C72.4796 35.7905 72.8738 35.6289 73.1579 35.3057C73.3978 35.0363 73.5178 34.7278 73.5178 34.3802C73.5178 33.9639 73.3341 33.626 72.9669 33.3665C72.7906 33.2392 72.3278 33.0384 71.5786 32.7642C70.8147 32.4899 70.2515 32.1986 69.8892 31.8901C69.3652 31.4493 69.1032 30.8397 69.1032 30.0611C69.1032 29.0033 69.5439 28.1953 70.4254 27.6371C70.9542 27.3041 71.559 27.1376 72.2397 27.1376C72.7196 27.1376 73.2093 27.2233 73.7088 27.3947C74.2131 27.5612 74.622 27.7791 74.9354 28.0484C75.0187 28.117 75.0603 28.2002 75.0603 28.2982C75.0603 28.3667 74.9967 28.4818 74.8693 28.6434Z" fill="white"/>
</svg>
