<svg width="108" height="51" viewBox="0 0 108 51" fill="none" xmlns="http://www.w3.org/2000/svg">
<path d="M23.1804 11.6647C23.6021 12.0572 23.6021 12.7265 23.1804 13.1242L21.3644 14.8368C21.1137 15.0732 21.0011 15.421 21.0663 15.7579L21.5389 18.203C21.6487 18.7707 21.2544 19.3156 20.68 19.3903L18.2216 19.7097C17.8795 19.7542 17.5833 19.9716 17.4378 20.285L16.3896 22.5441C16.1447 23.0718 15.5047 23.2836 14.9973 23.0049L12.834 21.8164C12.532 21.6504 12.1648 21.6527 11.8628 21.8223L9.69944 23.0374C9.19206 23.3223 8.55211 23.1184 8.30722 22.5936L7.25892 20.3474C7.11348 20.0357 6.8173 19.8219 6.47518 19.7817L4.01682 19.4924C3.44236 19.4248 3.0481 18.8847 3.15785 18.3156L3.63052 15.8648C3.69565 15.5271 3.58307 15.1806 3.33237 14.9473L1.51639 13.257C1.09468 12.8644 1.09469 12.1952 1.5164 11.7975L3.33237 10.0849C3.58307 9.84847 3.69565 9.50064 3.63052 9.16372L3.15785 6.71868C3.0481 6.151 3.44236 5.60605 4.01682 5.5314L6.47518 5.21196C6.8173 5.16751 7.11348 4.9501 7.25893 4.63665L8.30722 2.37756C8.55211 1.84983 9.19206 1.63802 9.69944 1.91677L11.8628 3.1053C12.1648 3.27121 12.532 3.26896 12.834 3.09934L14.9973 1.8843C15.5047 1.59933 16.1447 1.8033 16.3896 2.32803L17.4379 4.57428C17.5833 4.88594 17.8795 5.09972 18.2216 5.13998L20.68 5.42929C21.2544 5.4969 21.6487 6.03701 21.5389 6.60604L21.0663 9.05688C21.0011 9.39459 21.1137 9.74104 21.3644 9.97439L23.1804 11.6647Z" fill="white"/>
<path d="M21.4499 14.9275L23.2658 13.2149C23.7403 12.7675 23.7403 12.0146 23.2658 11.573L21.4499 9.88265C21.2305 9.67847 21.132 9.37532 21.189 9.07982L21.6617 6.62899C21.7851 5.98883 21.3416 5.3812 20.6953 5.30515L18.237 5.01583C17.9376 4.9806 17.6784 4.79355 17.5512 4.52084L16.5029 2.2746C16.2274 1.68427 15.5074 1.45481 14.9366 1.7754L12.7733 2.99044C12.509 3.13886 12.1877 3.14083 11.9235 2.99565L9.76014 1.80712C9.18934 1.49353 8.46939 1.73181 8.19389 2.32551L7.1456 4.58461C7.01833 4.85887 6.75917 5.0491 6.45982 5.088L4.00146 5.40745C3.35519 5.49142 2.91165 6.10449 3.03512 6.74313L3.50779 9.18817C3.56478 9.48297 3.46627 9.78732 3.24691 9.9942L1.43093 11.7068C0.956509 12.1542 0.956509 12.9071 1.43093 13.3487L3.24691 15.039C3.46627 15.2432 3.56478 15.5463 3.50779 15.8418L3.03512 18.2927C2.91165 18.9328 3.35519 19.5405 4.00146 19.6165L6.45982 19.9058C6.75917 19.9411 7.01833 20.1281 7.1456 20.4008L8.19389 22.6471C8.46939 23.2374 9.18934 23.4669 9.76014 23.1463L11.9235 21.9312C12.1877 21.7828 12.509 21.7808 12.7733 21.926L14.9366 23.1145C15.5074 23.4281 16.2274 23.1898 16.5029 22.5962L17.5512 20.3371C17.6784 20.0628 17.9376 19.8726 18.237 19.8337L20.6953 19.5142C21.3416 19.4302 21.7851 18.8172 21.6617 18.1785L21.189 15.7335C21.132 15.4387 21.2305 15.1343 21.4499 14.9275Z" stroke="black" stroke-opacity="0.25" stroke-width="0.25"/>
<mask id="path-3-outside-1" maskUnits="userSpaceOnUse" x="29.9593" y="2.01085" width="79" height="49" fill="black">
<rect fill="white" x="29.9593" y="2.01085" width="79" height="49"/>
<path d="M39.2953 12.8605H34.3574L33.4636 14.9711C33.3633 15.1967 33.2837 15.3303 33.2247 15.3718C33.1657 15.4075 33.0152 15.4253 32.7734 15.4253H31.5787C31.3663 15.4253 31.2247 15.4104 31.1539 15.3807C31.0242 15.3214 30.9593 15.2204 30.9593 15.0779C30.9593 15.0067 31.0006 14.8702 31.0831 14.6683L35.8087 3.47394C35.8323 3.41457 35.8529 3.3641 35.8706 3.32255C35.9237 3.18006 35.9827 3.09397 36.0476 3.06428C36.1184 3.02866 36.2688 3.01085 36.4989 3.01085H37.2688C37.5166 3.01085 37.67 3.03163 37.7289 3.07319C37.7879 3.11475 37.8646 3.2513 37.959 3.48285L42.5518 14.6683C42.6344 14.8702 42.6757 15.0067 42.6757 15.0779C42.6757 15.2086 42.6285 15.3006 42.5341 15.354C42.4456 15.4015 42.2863 15.4253 42.0562 15.4253H40.835C40.5873 15.4253 40.4309 15.4045 40.366 15.3629C40.307 15.3214 40.2333 15.1848 40.1448 14.9533L39.2953 12.8605ZM38.5608 10.9368L36.8617 6.56419L35.1096 10.9368H38.5608Z"/>
<path d="M44.2686 14.793V3.90141C44.2686 3.62237 44.304 3.44722 44.3747 3.37598C44.4455 3.30473 44.6196 3.26911 44.8969 3.26911H47.7198C49.4837 3.26911 50.932 3.73517 52.0648 4.66729C52.7963 5.27287 53.3538 6.02391 53.7373 6.92041C54.0617 7.68629 54.224 8.4878 54.224 9.32493C54.224 10.5895 53.87 11.7413 53.1621 12.7803C52.4364 13.849 51.4925 14.597 50.3303 15.0245C49.5988 15.2917 48.7227 15.4253 47.7021 15.4253H44.8969C44.6196 15.4253 44.4455 15.3896 44.3747 15.3184C44.304 15.2472 44.2686 15.072 44.2686 14.793ZM46.6225 13.3681H47.2508C48.0177 13.3681 48.6548 13.2939 49.1622 13.1454C49.6755 12.9911 50.1209 12.7447 50.4984 12.4063C50.9055 12.0382 51.2241 11.584 51.4542 11.0437C51.6842 10.4975 51.7993 9.93051 51.7993 9.34274C51.7993 8.52936 51.5869 7.78426 51.1621 7.10743C50.7669 6.4781 50.2625 6.02391 49.6489 5.74487C49.0413 5.46583 48.2419 5.32631 47.2508 5.32631H46.6225V13.3681Z"/>
<path d="M34.4813 21.4105V27.7335C34.4813 28.3569 34.5049 28.8111 34.5521 29.0961C34.6052 29.3751 34.7084 29.6482 34.8618 29.9154C35.0683 30.2657 35.3603 30.5418 35.7379 30.7436C36.1154 30.9455 36.5313 31.0464 36.9856 31.0464C37.4399 31.0464 37.8558 30.9455 38.2334 30.7436C38.6109 30.5418 38.9029 30.2657 39.1094 29.9154C39.2628 29.6482 39.3631 29.3751 39.4103 29.0961C39.4634 28.8111 39.49 28.3569 39.49 27.7335V21.4105C39.49 21.1315 39.5253 20.9564 39.5961 20.8851C39.6669 20.8139 39.838 20.7783 40.1094 20.7783H41.2156C41.4928 20.7783 41.6669 20.8139 41.7377 20.8851C41.8085 20.9564 41.8439 21.1315 41.8439 21.4105V28.2055C41.8439 29.5948 41.5489 30.6783 40.9589 31.4561C40.5047 32.0557 39.8911 32.5069 39.1183 32.8097C38.4398 33.0769 37.7289 33.2105 36.9856 33.2105C35.8647 33.2105 34.8795 32.9374 34.03 32.3912C33.1745 31.8331 32.6111 31.0583 32.3397 30.0668C32.1982 29.5562 32.1274 28.9358 32.1274 28.2055V21.4105C32.1274 21.1315 32.1628 20.9564 32.2336 20.8851C32.3043 20.8139 32.4784 20.7783 32.7557 20.7783H33.8618C34.1332 20.7783 34.3043 20.8139 34.3751 20.8851C34.4459 20.9564 34.4813 21.1315 34.4813 21.4105Z"/>
<path d="M51.2595 22.3991L50.8082 22.9957C50.6371 23.2273 50.4866 23.3431 50.3568 23.3431C50.292 23.3431 50.2359 23.3282 50.1887 23.2985C50.1415 23.2689 50.0117 23.162 49.7993 22.9779C49.6637 22.8711 49.4601 22.7761 49.1887 22.693C48.9174 22.6098 48.6666 22.5683 48.4366 22.5683C47.9174 22.5683 47.4956 22.7167 47.1711 23.0136C46.882 23.2748 46.7375 23.5776 46.7375 23.9219C46.7375 24.2544 46.8643 24.5275 47.118 24.7412C47.3776 24.949 47.8614 25.1836 48.5693 25.4448C49.2418 25.6882 49.7433 25.896 50.0737 26.0682C50.404 26.2344 50.7079 26.4333 50.9851 26.6649C51.699 27.2704 52.0559 28.1224 52.0559 29.2208C52.0559 30.5329 51.5987 31.56 50.6843 32.3021C49.9173 32.9196 48.9705 33.2283 47.8437 33.2283C46.9351 33.2283 46.1122 33.0057 45.3747 32.5604C44.9794 32.3229 44.6196 32.0409 44.2951 31.7143C43.9765 31.3819 43.8172 31.1325 43.8172 30.9663C43.8172 30.8594 43.9146 30.711 44.1093 30.521L44.711 29.9332C44.9057 29.7432 45.0502 29.6482 45.1446 29.6482C45.2626 29.6482 45.3718 29.7076 45.4721 29.8264C45.7434 30.1648 45.9175 30.3696 45.9942 30.4408C46.0709 30.5121 46.1977 30.5982 46.3747 30.6991C46.8171 30.9425 47.2832 31.0642 47.7729 31.0642C48.3805 31.0642 48.8554 30.8683 49.1976 30.4765C49.4867 30.1499 49.6312 29.7759 49.6312 29.3544C49.6312 28.8497 49.41 28.44 48.9675 28.1254C48.7551 27.971 48.1976 27.7276 47.295 27.3951C46.3747 27.0626 45.6962 26.7094 45.2597 26.3354C44.6284 25.801 44.3128 25.0618 44.3128 24.1179C44.3128 22.8354 44.8438 21.8558 45.9057 21.179C46.5428 20.7753 47.2714 20.5734 48.0914 20.5734C48.6696 20.5734 49.2595 20.6773 49.8613 20.8851C50.4689 21.087 50.9615 21.3512 51.3391 21.6777C51.4394 21.7608 51.4896 21.8618 51.4896 21.9805C51.4896 22.0636 51.4129 22.2031 51.2595 22.3991Z"/>
<path d="M56.4982 21.4105V27.7335C56.4982 28.3569 56.5218 28.8111 56.569 29.0961C56.6221 29.3751 56.7254 29.6482 56.8788 29.9154C57.0852 30.2657 57.3773 30.5418 57.7548 30.7436C58.1324 30.9455 58.5483 31.0464 59.0026 31.0464C59.4568 31.0464 59.8728 30.9455 60.2503 30.7436C60.6279 30.5418 60.9199 30.2657 61.1264 29.9154C61.2798 29.6482 61.3801 29.3751 61.4273 29.0961C61.4804 28.8111 61.5069 28.3569 61.5069 27.7335V21.4105C61.5069 21.1315 61.5423 20.9564 61.6131 20.8851C61.6839 20.8139 61.855 20.7783 62.1264 20.7783H63.2325C63.5098 20.7783 63.6838 20.8139 63.7546 20.8851C63.8254 20.9564 63.8608 21.1315 63.8608 21.4105V28.2055C63.8608 29.5948 63.5659 30.6783 62.9759 31.4561C62.5216 32.0557 61.9081 32.5069 61.1353 32.8097C60.4568 33.0769 59.7459 33.2105 59.0026 33.2105C57.8817 33.2105 56.8965 32.9374 56.0469 32.3912C55.1915 31.8331 54.6281 31.0583 54.3567 30.0668C54.2151 29.5562 54.1443 28.9358 54.1443 28.2055V21.4105C54.1443 21.1315 54.1797 20.9564 54.2505 20.8851C54.3213 20.8139 54.4954 20.7783 54.7726 20.7783H55.8788C56.1502 20.7783 56.3213 20.8139 56.392 20.8851C56.4628 20.9564 56.4982 21.1315 56.4982 21.4105Z"/>
<path d="M73.1526 28.5083L76.4002 21.0009C76.4946 20.7753 76.5713 20.6447 76.6303 20.609C76.6893 20.5675 76.8427 20.5467 77.0905 20.5467H77.6391C77.9046 20.5467 78.0698 20.5764 78.1347 20.6358C78.2055 20.6892 78.2615 20.8465 78.3028 21.1078L80.1081 32.2487C80.1376 32.4149 80.1523 32.5248 80.1523 32.5782C80.1523 32.7147 80.1081 32.8097 80.0196 32.8632C79.9311 32.9107 79.7689 32.9344 79.5329 32.9344H78.4267C78.1612 32.9344 77.9931 32.9047 77.9223 32.8454C77.8574 32.786 77.8073 32.6257 77.7719 32.3644L76.7719 25.4448L73.6393 32.6405C73.6216 32.688 73.6009 32.7385 73.5773 32.7919C73.4888 32.9938 73.3354 33.0947 73.1172 33.0947C72.9697 33.0947 72.8694 33.071 72.8163 33.0235C72.7691 32.9819 72.6983 32.8513 72.6039 32.6316L69.5863 25.4448L68.4624 32.3734C68.4506 32.4387 68.4418 32.4921 68.4359 32.5337C68.4064 32.7058 68.3533 32.8157 68.2766 32.8632C68.1999 32.9107 68.0406 32.9344 67.7987 32.9344H66.7014C66.4655 32.9344 66.3032 32.9107 66.2147 32.8632C66.1262 32.8097 66.082 32.7118 66.082 32.5693C66.082 32.5158 66.0967 32.406 66.1262 32.2398L68.1527 21.1078C68.1999 20.8465 68.256 20.6892 68.3209 20.6358C68.3857 20.5764 68.5509 20.5467 68.8164 20.5467H69.3562C69.604 20.5467 69.7574 20.5675 69.8164 20.609C69.8754 20.6447 69.955 20.7783 70.0553 21.0098L73.1526 28.5083Z"/>
<path d="M34.4813 40.3446V43.043H38.021C38.2982 43.043 38.4723 43.0786 38.5431 43.1499C38.6139 43.2211 38.6493 43.3962 38.6493 43.6753V44.4679C38.6493 44.7469 38.6139 44.9221 38.5431 44.9933C38.4723 45.0646 38.2982 45.1002 38.021 45.1002H34.4813V48.3864H38.198C38.4693 48.3864 38.6404 48.422 38.7112 48.4932C38.782 48.5645 38.8174 48.7396 38.8174 49.0187V49.8112C38.8174 50.0903 38.782 50.2654 38.7112 50.3367C38.6404 50.4079 38.4693 50.4435 38.198 50.4435H32.7557C32.4784 50.4435 32.3043 50.4079 32.2336 50.3367C32.1628 50.2654 32.1274 50.0903 32.1274 49.8112V38.9197C32.1274 38.6406 32.1628 38.4655 32.2336 38.3943C32.3043 38.323 32.4784 38.2874 32.7557 38.2874H38.198C38.4634 38.2874 38.6345 38.326 38.7112 38.4032C38.782 38.4744 38.8174 38.6466 38.8174 38.9197V39.7123C38.8174 39.9913 38.782 40.1665 38.7112 40.2377C38.6404 40.309 38.4693 40.3446 38.198 40.3446H34.4813Z"/>
<path d="M41.1005 49.8112V38.9197C41.1005 38.6406 41.1359 38.4655 41.2067 38.3943C41.2775 38.323 41.4515 38.2874 41.7288 38.2874H44.5517C46.3157 38.2874 47.764 38.7535 48.8967 39.6856C49.6283 40.2912 50.1858 41.0422 50.5692 41.9387C50.8937 42.7046 51.0559 43.5061 51.0559 44.3432C51.0559 45.6078 50.702 46.7596 49.994 47.7986C49.2684 48.8673 48.3245 49.6153 47.1623 50.0428C46.4307 50.31 45.5546 50.4435 44.534 50.4435H41.7288C41.4515 50.4435 41.2775 50.4079 41.2067 50.3367C41.1359 50.2654 41.1005 50.0903 41.1005 49.8112ZM43.4544 48.3864H44.0827C44.8497 48.3864 45.4868 48.3121 45.9942 48.1637C46.5074 48.0093 46.9528 47.763 47.3304 47.4245C47.7375 47.0564 48.056 46.6023 48.2861 46.062C48.5162 45.5158 48.6312 44.9488 48.6312 44.361C48.6312 43.5476 48.4189 42.8025 47.9941 42.1257C47.5988 41.4964 47.0944 41.0422 46.4809 40.7632C45.8732 40.4841 45.0738 40.3446 44.0827 40.3446H43.4544V48.3864Z"/>
<path d="M55.5956 38.9197V49.8112C55.5956 50.0903 55.5602 50.2654 55.4894 50.3367C55.4186 50.4079 55.2475 50.4435 54.9762 50.4435H53.87C53.5927 50.4435 53.4187 50.4079 53.3479 50.3367C53.2771 50.2654 53.2417 50.0903 53.2417 49.8112V38.9197C53.2417 38.6406 53.2771 38.4655 53.3479 38.3943C53.4187 38.323 53.5927 38.2874 53.87 38.2874H54.9762C55.2475 38.2874 55.4186 38.323 55.4894 38.3943C55.5602 38.4655 55.5956 38.6406 55.5956 38.9197Z"/>
<path d="M59.8344 40.3446H57.7548C57.4776 40.3446 57.3035 40.309 57.2327 40.2377C57.1619 40.1665 57.1265 39.9913 57.1265 39.7123V38.9197C57.1265 38.6406 57.1619 38.4655 57.2327 38.3943C57.3035 38.323 57.4776 38.2874 57.7548 38.2874H64.2767C64.5481 38.2874 64.7222 38.326 64.7988 38.4032C64.8696 38.4744 64.905 38.6466 64.905 38.9197V39.7123C64.905 39.9913 64.8696 40.1665 64.7988 40.2377C64.7281 40.309 64.554 40.3446 64.2767 40.3446H62.1883V49.8112C62.1883 50.0903 62.1529 50.2654 62.0821 50.3367C62.0113 50.4079 61.8373 50.4435 61.56 50.4435H60.4627C60.1854 50.4435 60.0114 50.4079 59.9406 50.3367C59.8698 50.2654 59.8344 50.0903 59.8344 49.8112V40.3446Z"/>
<path d="M68.7987 38.9197V49.8112C68.7987 50.0903 68.7633 50.2654 68.6925 50.3367C68.6217 50.4079 68.4506 50.4435 68.1793 50.4435H67.0731C66.7958 50.4435 66.6218 50.4079 66.551 50.3367C66.4802 50.2654 66.4448 50.0903 66.4448 49.8112V38.9197C66.4448 38.6406 66.4802 38.4655 66.551 38.3943C66.6218 38.323 66.7958 38.2874 67.0731 38.2874H68.1793C68.4506 38.2874 68.6217 38.323 68.6925 38.3943C68.7633 38.4655 68.7987 38.6406 68.7987 38.9197Z"/>
<path d="M77.4533 38.0113C79.3529 38.0113 80.934 38.6911 82.1965 40.0507C83.3233 41.2619 83.8867 42.7016 83.8867 44.3699C83.8867 45.5158 83.6006 46.5785 83.0283 47.5581C82.4443 48.5734 81.639 49.363 80.6125 49.927C79.645 50.4554 78.5624 50.7196 77.3648 50.7196C76.2793 50.7196 75.2616 50.4673 74.3118 49.9626C73.1968 49.3749 72.3414 48.5407 71.7455 47.4602C71.2264 46.5221 70.9668 45.4623 70.9668 44.2809C70.9668 42.4701 71.6629 40.9324 73.0552 39.6678C73.7514 39.0325 74.5478 38.5813 75.4445 38.3141C76.123 38.1122 76.7926 38.0113 77.4533 38.0113ZM77.4356 40.1754C76.3147 40.1754 75.3649 40.585 74.5861 41.4044C73.7956 42.2296 73.4003 43.233 73.4003 44.4145C73.4003 44.931 73.5065 45.4505 73.7189 45.9729C73.9313 46.4895 74.2204 46.9407 74.5861 47.3266C75.3649 48.1459 76.3117 48.5556 77.4267 48.5556C78.5477 48.5556 79.5004 48.1459 80.2851 47.3266C81.0697 46.5013 81.462 45.5128 81.462 44.361C81.462 43.8029 81.3588 43.2656 81.1523 42.7491C80.9458 42.2266 80.6567 41.7784 80.2851 41.4044C79.4768 40.585 78.527 40.1754 77.4356 40.1754Z"/>
<path d="M95.0456 46.4716V38.9197C95.0456 38.6406 95.081 38.4655 95.1518 38.3943C95.2226 38.323 95.3967 38.2874 95.6739 38.2874H96.7712C97.0485 38.2874 97.2226 38.323 97.2933 38.3943C97.3641 38.4655 97.3995 38.6406 97.3995 38.9197V50.0606C97.3995 50.3337 97.3641 50.5059 97.2933 50.5771C97.2226 50.6484 97.0485 50.684 96.7712 50.684H96.196C95.9719 50.684 95.8362 50.6721 95.789 50.6484C95.7418 50.6306 95.6444 50.5385 95.4969 50.3723L88.4087 42.2237V49.8112C88.4087 50.0903 88.3733 50.2654 88.3025 50.3367C88.2317 50.4079 88.0606 50.4435 87.7892 50.4435H86.6831C86.4058 50.4435 86.2318 50.4079 86.161 50.3367C86.0902 50.2654 86.0548 50.0903 86.0548 49.8112V38.6347C86.0548 38.3557 86.0902 38.1835 86.161 38.1182C86.2318 38.0469 86.4058 38.0113 86.6831 38.0113H87.2671C87.4913 38.0113 87.6241 38.0202 87.6653 38.038C87.7125 38.0558 87.8099 38.1508 87.9574 38.323L95.0456 46.4716Z"/>
<path d="M106.939 39.9082L106.488 40.5049C106.317 40.7364 106.166 40.8522 106.036 40.8522C105.972 40.8522 105.915 40.8374 105.868 40.8077C105.821 40.778 105.691 40.6711 105.479 40.4871C105.343 40.3802 105.14 40.2852 104.868 40.2021C104.597 40.119 104.346 40.0774 104.116 40.0774C103.597 40.0774 103.175 40.2258 102.851 40.5227C102.562 40.7839 102.417 41.0867 102.417 41.4311C102.417 41.7635 102.544 42.0367 102.798 42.2504C103.057 42.4582 103.541 42.6927 104.249 42.9539C104.921 43.1974 105.423 43.4051 105.753 43.5773C106.084 43.7436 106.387 43.9425 106.665 44.174C107.379 44.7796 107.735 45.6316 107.735 46.7299C107.735 48.042 107.278 49.0691 106.364 49.8112C105.597 50.4287 104.65 50.7374 103.523 50.7374C102.615 50.7374 101.792 50.5148 101.054 50.0695C100.659 49.832 100.299 49.55 99.9747 49.2235C99.6561 48.891 99.4968 48.6416 99.4968 48.4754C99.4968 48.3685 99.5942 48.2201 99.7888 48.0301L100.391 47.4424C100.585 47.2524 100.73 47.1574 100.824 47.1574C100.942 47.1574 101.051 47.2167 101.152 47.3355C101.423 47.6739 101.597 47.8787 101.674 47.95C101.75 48.0212 101.877 48.1073 102.054 48.2082C102.497 48.4517 102.963 48.5734 103.452 48.5734C104.06 48.5734 104.535 48.3774 104.877 47.9856C105.166 47.6591 105.311 47.285 105.311 46.8635C105.311 46.3588 105.09 45.9492 104.647 45.6345C104.435 45.4802 103.877 45.2367 102.975 44.9043C102.054 44.5718 101.376 44.2185 100.939 43.8445C100.308 43.3102 99.9924 42.571 99.9924 41.627C99.9924 40.3446 100.523 39.365 101.585 38.6881C102.222 38.2844 102.951 38.0826 103.771 38.0826C104.349 38.0826 104.939 38.1865 105.541 38.3943C106.149 38.5961 106.641 38.8603 107.019 39.1869C107.119 39.27 107.169 39.3709 107.169 39.4896C107.169 39.5728 107.092 39.7123 106.939 39.9082Z"/>
</mask>
<path d="M39.2953 12.8605H34.3574L33.4636 14.9711C33.3633 15.1967 33.2837 15.3303 33.2247 15.3718C33.1657 15.4075 33.0152 15.4253 32.7734 15.4253H31.5787C31.3663 15.4253 31.2247 15.4104 31.1539 15.3807C31.0242 15.3214 30.9593 15.2204 30.9593 15.0779C30.9593 15.0067 31.0006 14.8702 31.0831 14.6683L35.8087 3.47394C35.8323 3.41457 35.8529 3.3641 35.8706 3.32255C35.9237 3.18006 35.9827 3.09397 36.0476 3.06428C36.1184 3.02866 36.2688 3.01085 36.4989 3.01085H37.2688C37.5166 3.01085 37.67 3.03163 37.7289 3.07319C37.7879 3.11475 37.8646 3.2513 37.959 3.48285L42.5518 14.6683C42.6344 14.8702 42.6757 15.0067 42.6757 15.0779C42.6757 15.2086 42.6285 15.3006 42.5341 15.354C42.4456 15.4015 42.2863 15.4253 42.0562 15.4253H40.835C40.5873 15.4253 40.4309 15.4045 40.366 15.3629C40.307 15.3214 40.2333 15.1848 40.1448 14.9533L39.2953 12.8605ZM38.5608 10.9368L36.8617 6.56419L35.1096 10.9368H38.5608Z" fill="white"/>
<path d="M44.2686 14.793V3.90141C44.2686 3.62237 44.304 3.44722 44.3747 3.37598C44.4455 3.30473 44.6196 3.26911 44.8969 3.26911H47.7198C49.4837 3.26911 50.932 3.73517 52.0648 4.66729C52.7963 5.27287 53.3538 6.02391 53.7373 6.92041C54.0617 7.68629 54.224 8.4878 54.224 9.32493C54.224 10.5895 53.87 11.7413 53.1621 12.7803C52.4364 13.849 51.4925 14.597 50.3303 15.0245C49.5988 15.2917 48.7227 15.4253 47.7021 15.4253H44.8969C44.6196 15.4253 44.4455 15.3896 44.3747 15.3184C44.304 15.2472 44.2686 15.072 44.2686 14.793ZM46.6225 13.3681H47.2508C48.0177 13.3681 48.6548 13.2939 49.1622 13.1454C49.6755 12.9911 50.1209 12.7447 50.4984 12.4063C50.9055 12.0382 51.2241 11.584 51.4542 11.0437C51.6842 10.4975 51.7993 9.93051 51.7993 9.34274C51.7993 8.52936 51.5869 7.78426 51.1621 7.10743C50.7669 6.4781 50.2625 6.02391 49.6489 5.74487C49.0413 5.46583 48.2419 5.32631 47.2508 5.32631H46.6225V13.3681Z" fill="white"/>
<path d="M34.4813 21.4105V27.7335C34.4813 28.3569 34.5049 28.8111 34.5521 29.0961C34.6052 29.3751 34.7084 29.6482 34.8618 29.9154C35.0683 30.2657 35.3603 30.5418 35.7379 30.7436C36.1154 30.9455 36.5313 31.0464 36.9856 31.0464C37.4399 31.0464 37.8558 30.9455 38.2334 30.7436C38.6109 30.5418 38.9029 30.2657 39.1094 29.9154C39.2628 29.6482 39.3631 29.3751 39.4103 29.0961C39.4634 28.8111 39.49 28.3569 39.49 27.7335V21.4105C39.49 21.1315 39.5253 20.9564 39.5961 20.8851C39.6669 20.8139 39.838 20.7783 40.1094 20.7783H41.2156C41.4928 20.7783 41.6669 20.8139 41.7377 20.8851C41.8085 20.9564 41.8439 21.1315 41.8439 21.4105V28.2055C41.8439 29.5948 41.5489 30.6783 40.9589 31.4561C40.5047 32.0557 39.8911 32.5069 39.1183 32.8097C38.4398 33.0769 37.7289 33.2105 36.9856 33.2105C35.8647 33.2105 34.8795 32.9374 34.03 32.3912C33.1745 31.8331 32.6111 31.0583 32.3397 30.0668C32.1982 29.5562 32.1274 28.9358 32.1274 28.2055V21.4105C32.1274 21.1315 32.1628 20.9564 32.2336 20.8851C32.3043 20.8139 32.4784 20.7783 32.7557 20.7783H33.8618C34.1332 20.7783 34.3043 20.8139 34.3751 20.8851C34.4459 20.9564 34.4813 21.1315 34.4813 21.4105Z" fill="white"/>
<path d="M51.2595 22.3991L50.8082 22.9957C50.6371 23.2273 50.4866 23.3431 50.3568 23.3431C50.292 23.3431 50.2359 23.3282 50.1887 23.2985C50.1415 23.2689 50.0117 23.162 49.7993 22.9779C49.6637 22.8711 49.4601 22.7761 49.1887 22.693C48.9174 22.6098 48.6666 22.5683 48.4366 22.5683C47.9174 22.5683 47.4956 22.7167 47.1711 23.0136C46.882 23.2748 46.7375 23.5776 46.7375 23.9219C46.7375 24.2544 46.8643 24.5275 47.118 24.7412C47.3776 24.949 47.8614 25.1836 48.5693 25.4448C49.2418 25.6882 49.7433 25.896 50.0737 26.0682C50.404 26.2344 50.7079 26.4333 50.9851 26.6649C51.699 27.2704 52.0559 28.1224 52.0559 29.2208C52.0559 30.5329 51.5987 31.56 50.6843 32.3021C49.9173 32.9196 48.9705 33.2283 47.8437 33.2283C46.9351 33.2283 46.1122 33.0057 45.3747 32.5604C44.9794 32.3229 44.6196 32.0409 44.2951 31.7143C43.9765 31.3819 43.8172 31.1325 43.8172 30.9663C43.8172 30.8594 43.9146 30.711 44.1093 30.521L44.711 29.9332C44.9057 29.7432 45.0502 29.6482 45.1446 29.6482C45.2626 29.6482 45.3718 29.7076 45.4721 29.8264C45.7434 30.1648 45.9175 30.3696 45.9942 30.4408C46.0709 30.5121 46.1977 30.5982 46.3747 30.6991C46.8171 30.9425 47.2832 31.0642 47.7729 31.0642C48.3805 31.0642 48.8554 30.8683 49.1976 30.4765C49.4867 30.1499 49.6312 29.7759 49.6312 29.3544C49.6312 28.8497 49.41 28.44 48.9675 28.1254C48.7551 27.971 48.1976 27.7276 47.295 27.3951C46.3747 27.0626 45.6962 26.7094 45.2597 26.3354C44.6284 25.801 44.3128 25.0618 44.3128 24.1179C44.3128 22.8354 44.8438 21.8558 45.9057 21.179C46.5428 20.7753 47.2714 20.5734 48.0914 20.5734C48.6696 20.5734 49.2595 20.6773 49.8613 20.8851C50.4689 21.087 50.9615 21.3512 51.3391 21.6777C51.4394 21.7608 51.4896 21.8618 51.4896 21.9805C51.4896 22.0636 51.4129 22.2031 51.2595 22.3991Z" fill="white"/>
<path d="M56.4982 21.4105V27.7335C56.4982 28.3569 56.5218 28.8111 56.569 29.0961C56.6221 29.3751 56.7254 29.6482 56.8788 29.9154C57.0852 30.2657 57.3773 30.5418 57.7548 30.7436C58.1324 30.9455 58.5483 31.0464 59.0026 31.0464C59.4568 31.0464 59.8728 30.9455 60.2503 30.7436C60.6279 30.5418 60.9199 30.2657 61.1264 29.9154C61.2798 29.6482 61.3801 29.3751 61.4273 29.0961C61.4804 28.8111 61.5069 28.3569 61.5069 27.7335V21.4105C61.5069 21.1315 61.5423 20.9564 61.6131 20.8851C61.6839 20.8139 61.855 20.7783 62.1264 20.7783H63.2325C63.5098 20.7783 63.6838 20.8139 63.7546 20.8851C63.8254 20.9564 63.8608 21.1315 63.8608 21.4105V28.2055C63.8608 29.5948 63.5659 30.6783 62.9759 31.4561C62.5216 32.0557 61.9081 32.5069 61.1353 32.8097C60.4568 33.0769 59.7459 33.2105 59.0026 33.2105C57.8817 33.2105 56.8965 32.9374 56.0469 32.3912C55.1915 31.8331 54.6281 31.0583 54.3567 30.0668C54.2151 29.5562 54.1443 28.9358 54.1443 28.2055V21.4105C54.1443 21.1315 54.1797 20.9564 54.2505 20.8851C54.3213 20.8139 54.4954 20.7783 54.7726 20.7783H55.8788C56.1502 20.7783 56.3213 20.8139 56.392 20.8851C56.4628 20.9564 56.4982 21.1315 56.4982 21.4105Z" fill="white"/>
<path d="M73.1526 28.5083L76.4002 21.0009C76.4946 20.7753 76.5713 20.6447 76.6303 20.609C76.6893 20.5675 76.8427 20.5467 77.0905 20.5467H77.6391C77.9046 20.5467 78.0698 20.5764 78.1347 20.6358C78.2055 20.6892 78.2615 20.8465 78.3028 21.1078L80.1081 32.2487C80.1376 32.4149 80.1523 32.5248 80.1523 32.5782C80.1523 32.7147 80.1081 32.8097 80.0196 32.8632C79.9311 32.9107 79.7689 32.9344 79.5329 32.9344H78.4267C78.1612 32.9344 77.9931 32.9047 77.9223 32.8454C77.8574 32.786 77.8073 32.6257 77.7719 32.3644L76.7719 25.4448L73.6393 32.6405C73.6216 32.688 73.6009 32.7385 73.5773 32.7919C73.4888 32.9938 73.3354 33.0947 73.1172 33.0947C72.9697 33.0947 72.8694 33.071 72.8163 33.0235C72.7691 32.9819 72.6983 32.8513 72.6039 32.6316L69.5863 25.4448L68.4624 32.3734C68.4506 32.4387 68.4418 32.4921 68.4359 32.5337C68.4064 32.7058 68.3533 32.8157 68.2766 32.8632C68.1999 32.9107 68.0406 32.9344 67.7987 32.9344H66.7014C66.4655 32.9344 66.3032 32.9107 66.2147 32.8632C66.1262 32.8097 66.082 32.7118 66.082 32.5693C66.082 32.5158 66.0967 32.406 66.1262 32.2398L68.1527 21.1078C68.1999 20.8465 68.256 20.6892 68.3209 20.6358C68.3857 20.5764 68.5509 20.5467 68.8164 20.5467H69.3562C69.604 20.5467 69.7574 20.5675 69.8164 20.609C69.8754 20.6447 69.955 20.7783 70.0553 21.0098L73.1526 28.5083Z" fill="white"/>
<path d="M34.4813 40.3446V43.043H38.021C38.2982 43.043 38.4723 43.0786 38.5431 43.1499C38.6139 43.2211 38.6493 43.3962 38.6493 43.6753V44.4679C38.6493 44.7469 38.6139 44.9221 38.5431 44.9933C38.4723 45.0646 38.2982 45.1002 38.021 45.1002H34.4813V48.3864H38.198C38.4693 48.3864 38.6404 48.422 38.7112 48.4932C38.782 48.5645 38.8174 48.7396 38.8174 49.0187V49.8112C38.8174 50.0903 38.782 50.2654 38.7112 50.3367C38.6404 50.4079 38.4693 50.4435 38.198 50.4435H32.7557C32.4784 50.4435 32.3043 50.4079 32.2336 50.3367C32.1628 50.2654 32.1274 50.0903 32.1274 49.8112V38.9197C32.1274 38.6406 32.1628 38.4655 32.2336 38.3943C32.3043 38.323 32.4784 38.2874 32.7557 38.2874H38.198C38.4634 38.2874 38.6345 38.326 38.7112 38.4032C38.782 38.4744 38.8174 38.6466 38.8174 38.9197V39.7123C38.8174 39.9913 38.782 40.1665 38.7112 40.2377C38.6404 40.309 38.4693 40.3446 38.198 40.3446H34.4813Z" fill="white"/>
<path d="M41.1005 49.8112V38.9197C41.1005 38.6406 41.1359 38.4655 41.2067 38.3943C41.2775 38.323 41.4515 38.2874 41.7288 38.2874H44.5517C46.3157 38.2874 47.764 38.7535 48.8967 39.6856C49.6283 40.2912 50.1858 41.0422 50.5692 41.9387C50.8937 42.7046 51.0559 43.5061 51.0559 44.3432C51.0559 45.6078 50.702 46.7596 49.994 47.7986C49.2684 48.8673 48.3245 49.6153 47.1623 50.0428C46.4307 50.31 45.5546 50.4435 44.534 50.4435H41.7288C41.4515 50.4435 41.2775 50.4079 41.2067 50.3367C41.1359 50.2654 41.1005 50.0903 41.1005 49.8112ZM43.4544 48.3864H44.0827C44.8497 48.3864 45.4868 48.3121 45.9942 48.1637C46.5074 48.0093 46.9528 47.763 47.3304 47.4245C47.7375 47.0564 48.056 46.6023 48.2861 46.062C48.5162 45.5158 48.6312 44.9488 48.6312 44.361C48.6312 43.5476 48.4189 42.8025 47.9941 42.1257C47.5988 41.4964 47.0944 41.0422 46.4809 40.7632C45.8732 40.4841 45.0738 40.3446 44.0827 40.3446H43.4544V48.3864Z" fill="white"/>
<path d="M55.5956 38.9197V49.8112C55.5956 50.0903 55.5602 50.2654 55.4894 50.3367C55.4186 50.4079 55.2475 50.4435 54.9762 50.4435H53.87C53.5927 50.4435 53.4187 50.4079 53.3479 50.3367C53.2771 50.2654 53.2417 50.0903 53.2417 49.8112V38.9197C53.2417 38.6406 53.2771 38.4655 53.3479 38.3943C53.4187 38.323 53.5927 38.2874 53.87 38.2874H54.9762C55.2475 38.2874 55.4186 38.323 55.4894 38.3943C55.5602 38.4655 55.5956 38.6406 55.5956 38.9197Z" fill="white"/>
<path d="M59.8344 40.3446H57.7548C57.4776 40.3446 57.3035 40.309 57.2327 40.2377C57.1619 40.1665 57.1265 39.9913 57.1265 39.7123V38.9197C57.1265 38.6406 57.1619 38.4655 57.2327 38.3943C57.3035 38.323 57.4776 38.2874 57.7548 38.2874H64.2767C64.5481 38.2874 64.7222 38.326 64.7988 38.4032C64.8696 38.4744 64.905 38.6466 64.905 38.9197V39.7123C64.905 39.9913 64.8696 40.1665 64.7988 40.2377C64.7281 40.309 64.554 40.3446 64.2767 40.3446H62.1883V49.8112C62.1883 50.0903 62.1529 50.2654 62.0821 50.3367C62.0113 50.4079 61.8373 50.4435 61.56 50.4435H60.4627C60.1854 50.4435 60.0114 50.4079 59.9406 50.3367C59.8698 50.2654 59.8344 50.0903 59.8344 49.8112V40.3446Z" fill="white"/>
<path d="M68.7987 38.9197V49.8112C68.7987 50.0903 68.7633 50.2654 68.6925 50.3367C68.6217 50.4079 68.4506 50.4435 68.1793 50.4435H67.0731C66.7958 50.4435 66.6218 50.4079 66.551 50.3367C66.4802 50.2654 66.4448 50.0903 66.4448 49.8112V38.9197C66.4448 38.6406 66.4802 38.4655 66.551 38.3943C66.6218 38.323 66.7958 38.2874 67.0731 38.2874H68.1793C68.4506 38.2874 68.6217 38.323 68.6925 38.3943C68.7633 38.4655 68.7987 38.6406 68.7987 38.9197Z" fill="white"/>
<path d="M77.4533 38.0113C79.3529 38.0113 80.934 38.6911 82.1965 40.0507C83.3233 41.2619 83.8867 42.7016 83.8867 44.3699C83.8867 45.5158 83.6006 46.5785 83.0283 47.5581C82.4443 48.5734 81.639 49.363 80.6125 49.927C79.645 50.4554 78.5624 50.7196 77.3648 50.7196C76.2793 50.7196 75.2616 50.4673 74.3118 49.9626C73.1968 49.3749 72.3414 48.5407 71.7455 47.4602C71.2264 46.5221 70.9668 45.4623 70.9668 44.2809C70.9668 42.4701 71.6629 40.9324 73.0552 39.6678C73.7514 39.0325 74.5478 38.5813 75.4445 38.3141C76.123 38.1122 76.7926 38.0113 77.4533 38.0113ZM77.4356 40.1754C76.3147 40.1754 75.3649 40.585 74.5861 41.4044C73.7956 42.2296 73.4003 43.233 73.4003 44.4145C73.4003 44.931 73.5065 45.4505 73.7189 45.9729C73.9313 46.4895 74.2204 46.9407 74.5861 47.3266C75.3649 48.1459 76.3117 48.5556 77.4267 48.5556C78.5477 48.5556 79.5004 48.1459 80.2851 47.3266C81.0697 46.5013 81.462 45.5128 81.462 44.361C81.462 43.8029 81.3588 43.2656 81.1523 42.7491C80.9458 42.2266 80.6567 41.7784 80.2851 41.4044C79.4768 40.585 78.527 40.1754 77.4356 40.1754Z" fill="white"/>
<path d="M95.0456 46.4716V38.9197C95.0456 38.6406 95.081 38.4655 95.1518 38.3943C95.2226 38.323 95.3967 38.2874 95.6739 38.2874H96.7712C97.0485 38.2874 97.2226 38.323 97.2933 38.3943C97.3641 38.4655 97.3995 38.6406 97.3995 38.9197V50.0606C97.3995 50.3337 97.3641 50.5059 97.2933 50.5771C97.2226 50.6484 97.0485 50.684 96.7712 50.684H96.196C95.9719 50.684 95.8362 50.6721 95.789 50.6484C95.7418 50.6306 95.6444 50.5385 95.4969 50.3723L88.4087 42.2237V49.8112C88.4087 50.0903 88.3733 50.2654 88.3025 50.3367C88.2317 50.4079 88.0606 50.4435 87.7892 50.4435H86.6831C86.4058 50.4435 86.2318 50.4079 86.161 50.3367C86.0902 50.2654 86.0548 50.0903 86.0548 49.8112V38.6347C86.0548 38.3557 86.0902 38.1835 86.161 38.1182C86.2318 38.0469 86.4058 38.0113 86.6831 38.0113H87.2671C87.4913 38.0113 87.6241 38.0202 87.6653 38.038C87.7125 38.0558 87.8099 38.1508 87.9574 38.323L95.0456 46.4716Z" fill="white"/>
<path d="M106.939 39.9082L106.488 40.5049C106.317 40.7364 106.166 40.8522 106.036 40.8522C105.972 40.8522 105.915 40.8374 105.868 40.8077C105.821 40.778 105.691 40.6711 105.479 40.4871C105.343 40.3802 105.14 40.2852 104.868 40.2021C104.597 40.119 104.346 40.0774 104.116 40.0774C103.597 40.0774 103.175 40.2258 102.851 40.5227C102.562 40.7839 102.417 41.0867 102.417 41.4311C102.417 41.7635 102.544 42.0367 102.798 42.2504C103.057 42.4582 103.541 42.6927 104.249 42.9539C104.921 43.1974 105.423 43.4051 105.753 43.5773C106.084 43.7436 106.387 43.9425 106.665 44.174C107.379 44.7796 107.735 45.6316 107.735 46.7299C107.735 48.042 107.278 49.0691 106.364 49.8112C105.597 50.4287 104.65 50.7374 103.523 50.7374C102.615 50.7374 101.792 50.5148 101.054 50.0695C100.659 49.832 100.299 49.55 99.9747 49.2235C99.6561 48.891 99.4968 48.6416 99.4968 48.4754C99.4968 48.3685 99.5942 48.2201 99.7888 48.0301L100.391 47.4424C100.585 47.2524 100.73 47.1574 100.824 47.1574C100.942 47.1574 101.051 47.2167 101.152 47.3355C101.423 47.6739 101.597 47.8787 101.674 47.95C101.75 48.0212 101.877 48.1073 102.054 48.2082C102.497 48.4517 102.963 48.5734 103.452 48.5734C104.06 48.5734 104.535 48.3774 104.877 47.9856C105.166 47.6591 105.311 47.285 105.311 46.8635C105.311 46.3588 105.09 45.9492 104.647 45.6345C104.435 45.4802 103.877 45.2367 102.975 44.9043C102.054 44.5718 101.376 44.2185 100.939 43.8445C100.308 43.3102 99.9924 42.571 99.9924 41.627C99.9924 40.3446 100.523 39.365 101.585 38.6881C102.222 38.2844 102.951 38.0826 103.771 38.0826C104.349 38.0826 104.939 38.1865 105.541 38.3943C106.149 38.5961 106.641 38.8603 107.019 39.1869C107.119 39.27 107.169 39.3709 107.169 39.4896C107.169 39.5728 107.092 39.7123 106.939 39.9082Z" fill="white"/>
<path d="M39.2953 12.8605H34.3574L33.4636 14.9711C33.3633 15.1967 33.2837 15.3303 33.2247 15.3718C33.1657 15.4075 33.0152 15.4253 32.7734 15.4253H31.5787C31.3663 15.4253 31.2247 15.4104 31.1539 15.3807C31.0242 15.3214 30.9593 15.2204 30.9593 15.0779C30.9593 15.0067 31.0006 14.8702 31.0831 14.6683L35.8087 3.47394C35.8323 3.41457 35.8529 3.3641 35.8706 3.32255C35.9237 3.18006 35.9827 3.09397 36.0476 3.06428C36.1184 3.02866 36.2688 3.01085 36.4989 3.01085H37.2688C37.5166 3.01085 37.67 3.03163 37.7289 3.07319C37.7879 3.11475 37.8646 3.2513 37.959 3.48285L42.5518 14.6683C42.6344 14.8702 42.6757 15.0067 42.6757 15.0779C42.6757 15.2086 42.6285 15.3006 42.5341 15.354C42.4456 15.4015 42.2863 15.4253 42.0562 15.4253H40.835C40.5873 15.4253 40.4309 15.4045 40.366 15.3629C40.307 15.3214 40.2333 15.1848 40.1448 14.9533L39.2953 12.8605ZM38.5608 10.9368L36.8617 6.56419L35.1096 10.9368H38.5608Z" stroke="black" stroke-opacity="0.25" stroke-width="0.5" mask="url(#path-3-outside-1)"/>
<path d="M44.2686 14.793V3.90141C44.2686 3.62237 44.304 3.44722 44.3747 3.37598C44.4455 3.30473 44.6196 3.26911 44.8969 3.26911H47.7198C49.4837 3.26911 50.932 3.73517 52.0648 4.66729C52.7963 5.27287 53.3538 6.02391 53.7373 6.92041C54.0617 7.68629 54.224 8.4878 54.224 9.32493C54.224 10.5895 53.87 11.7413 53.1621 12.7803C52.4364 13.849 51.4925 14.597 50.3303 15.0245C49.5988 15.2917 48.7227 15.4253 47.7021 15.4253H44.8969C44.6196 15.4253 44.4455 15.3896 44.3747 15.3184C44.304 15.2472 44.2686 15.072 44.2686 14.793ZM46.6225 13.3681H47.2508C48.0177 13.3681 48.6548 13.2939 49.1622 13.1454C49.6755 12.9911 50.1209 12.7447 50.4984 12.4063C50.9055 12.0382 51.2241 11.584 51.4542 11.0437C51.6842 10.4975 51.7993 9.93051 51.7993 9.34274C51.7993 8.52936 51.5869 7.78426 51.1621 7.10743C50.7669 6.4781 50.2625 6.02391 49.6489 5.74487C49.0413 5.46583 48.2419 5.32631 47.2508 5.32631H46.6225V13.3681Z" stroke="black" stroke-opacity="0.25" stroke-width="0.5" mask="url(#path-3-outside-1)"/>
<path d="M34.4813 21.4105V27.7335C34.4813 28.3569 34.5049 28.8111 34.5521 29.0961C34.6052 29.3751 34.7084 29.6482 34.8618 29.9154C35.0683 30.2657 35.3603 30.5418 35.7379 30.7436C36.1154 30.9455 36.5313 31.0464 36.9856 31.0464C37.4399 31.0464 37.8558 30.9455 38.2334 30.7436C38.6109 30.5418 38.9029 30.2657 39.1094 29.9154C39.2628 29.6482 39.3631 29.3751 39.4103 29.0961C39.4634 28.8111 39.49 28.3569 39.49 27.7335V21.4105C39.49 21.1315 39.5253 20.9564 39.5961 20.8851C39.6669 20.8139 39.838 20.7783 40.1094 20.7783H41.2156C41.4928 20.7783 41.6669 20.8139 41.7377 20.8851C41.8085 20.9564 41.8439 21.1315 41.8439 21.4105V28.2055C41.8439 29.5948 41.5489 30.6783 40.9589 31.4561C40.5047 32.0557 39.8911 32.5069 39.1183 32.8097C38.4398 33.0769 37.7289 33.2105 36.9856 33.2105C35.8647 33.2105 34.8795 32.9374 34.03 32.3912C33.1745 31.8331 32.6111 31.0583 32.3397 30.0668C32.1982 29.5562 32.1274 28.9358 32.1274 28.2055V21.4105C32.1274 21.1315 32.1628 20.9564 32.2336 20.8851C32.3043 20.8139 32.4784 20.7783 32.7557 20.7783H33.8618C34.1332 20.7783 34.3043 20.8139 34.3751 20.8851C34.4459 20.9564 34.4813 21.1315 34.4813 21.4105Z" stroke="black" stroke-opacity="0.25" stroke-width="0.5" mask="url(#path-3-outside-1)"/>
<path d="M51.2595 22.3991L50.8082 22.9957C50.6371 23.2273 50.4866 23.3431 50.3568 23.3431C50.292 23.3431 50.2359 23.3282 50.1887 23.2985C50.1415 23.2689 50.0117 23.162 49.7993 22.9779C49.6637 22.8711 49.4601 22.7761 49.1887 22.693C48.9174 22.6098 48.6666 22.5683 48.4366 22.5683C47.9174 22.5683 47.4956 22.7167 47.1711 23.0136C46.882 23.2748 46.7375 23.5776 46.7375 23.9219C46.7375 24.2544 46.8643 24.5275 47.118 24.7412C47.3776 24.949 47.8614 25.1836 48.5693 25.4448C49.2418 25.6882 49.7433 25.896 50.0737 26.0682C50.404 26.2344 50.7079 26.4333 50.9851 26.6649C51.699 27.2704 52.0559 28.1224 52.0559 29.2208C52.0559 30.5329 51.5987 31.56 50.6843 32.3021C49.9173 32.9196 48.9705 33.2283 47.8437 33.2283C46.9351 33.2283 46.1122 33.0057 45.3747 32.5604C44.9794 32.3229 44.6196 32.0409 44.2951 31.7143C43.9765 31.3819 43.8172 31.1325 43.8172 30.9663C43.8172 30.8594 43.9146 30.711 44.1093 30.521L44.711 29.9332C44.9057 29.7432 45.0502 29.6482 45.1446 29.6482C45.2626 29.6482 45.3718 29.7076 45.4721 29.8264C45.7434 30.1648 45.9175 30.3696 45.9942 30.4408C46.0709 30.5121 46.1977 30.5982 46.3747 30.6991C46.8171 30.9425 47.2832 31.0642 47.7729 31.0642C48.3805 31.0642 48.8554 30.8683 49.1976 30.4765C49.4867 30.1499 49.6312 29.7759 49.6312 29.3544C49.6312 28.8497 49.41 28.44 48.9675 28.1254C48.7551 27.971 48.1976 27.7276 47.295 27.3951C46.3747 27.0626 45.6962 26.7094 45.2597 26.3354C44.6284 25.801 44.3128 25.0618 44.3128 24.1179C44.3128 22.8354 44.8438 21.8558 45.9057 21.179C46.5428 20.7753 47.2714 20.5734 48.0914 20.5734C48.6696 20.5734 49.2595 20.6773 49.8613 20.8851C50.4689 21.087 50.9615 21.3512 51.3391 21.6777C51.4394 21.7608 51.4896 21.8618 51.4896 21.9805C51.4896 22.0636 51.4129 22.2031 51.2595 22.3991Z" stroke="black" stroke-opacity="0.25" stroke-width="0.5" mask="url(#path-3-outside-1)"/>
<path d="M56.4982 21.4105V27.7335C56.4982 28.3569 56.5218 28.8111 56.569 29.0961C56.6221 29.3751 56.7254 29.6482 56.8788 29.9154C57.0852 30.2657 57.3773 30.5418 57.7548 30.7436C58.1324 30.9455 58.5483 31.0464 59.0026 31.0464C59.4568 31.0464 59.8728 30.9455 60.2503 30.7436C60.6279 30.5418 60.9199 30.2657 61.1264 29.9154C61.2798 29.6482 61.3801 29.3751 61.4273 29.0961C61.4804 28.8111 61.5069 28.3569 61.5069 27.7335V21.4105C61.5069 21.1315 61.5423 20.9564 61.6131 20.8851C61.6839 20.8139 61.855 20.7783 62.1264 20.7783H63.2325C63.5098 20.7783 63.6838 20.8139 63.7546 20.8851C63.8254 20.9564 63.8608 21.1315 63.8608 21.4105V28.2055C63.8608 29.5948 63.5659 30.6783 62.9759 31.4561C62.5216 32.0557 61.9081 32.5069 61.1353 32.8097C60.4568 33.0769 59.7459 33.2105 59.0026 33.2105C57.8817 33.2105 56.8965 32.9374 56.0469 32.3912C55.1915 31.8331 54.6281 31.0583 54.3567 30.0668C54.2151 29.5562 54.1443 28.9358 54.1443 28.2055V21.4105C54.1443 21.1315 54.1797 20.9564 54.2505 20.8851C54.3213 20.8139 54.4954 20.7783 54.7726 20.7783H55.8788C56.1502 20.7783 56.3213 20.8139 56.392 20.8851C56.4628 20.9564 56.4982 21.1315 56.4982 21.4105Z" stroke="black" stroke-opacity="0.25" stroke-width="0.5" mask="url(#path-3-outside-1)"/>
<path d="M73.1526 28.5083L76.4002 21.0009C76.4946 20.7753 76.5713 20.6447 76.6303 20.609C76.6893 20.5675 76.8427 20.5467 77.0905 20.5467H77.6391C77.9046 20.5467 78.0698 20.5764 78.1347 20.6358C78.2055 20.6892 78.2615 20.8465 78.3028 21.1078L80.1081 32.2487C80.1376 32.4149 80.1523 32.5248 80.1523 32.5782C80.1523 32.7147 80.1081 32.8097 80.0196 32.8632C79.9311 32.9107 79.7689 32.9344 79.5329 32.9344H78.4267C78.1612 32.9344 77.9931 32.9047 77.9223 32.8454C77.8574 32.786 77.8073 32.6257 77.7719 32.3644L76.7719 25.4448L73.6393 32.6405C73.6216 32.688 73.6009 32.7385 73.5773 32.7919C73.4888 32.9938 73.3354 33.0947 73.1172 33.0947C72.9697 33.0947 72.8694 33.071 72.8163 33.0235C72.7691 32.9819 72.6983 32.8513 72.6039 32.6316L69.5863 25.4448L68.4624 32.3734C68.4506 32.4387 68.4418 32.4921 68.4359 32.5337C68.4064 32.7058 68.3533 32.8157 68.2766 32.8632C68.1999 32.9107 68.0406 32.9344 67.7987 32.9344H66.7014C66.4655 32.9344 66.3032 32.9107 66.2147 32.8632C66.1262 32.8097 66.082 32.7118 66.082 32.5693C66.082 32.5158 66.0967 32.406 66.1262 32.2398L68.1527 21.1078C68.1999 20.8465 68.256 20.6892 68.3209 20.6358C68.3857 20.5764 68.5509 20.5467 68.8164 20.5467H69.3562C69.604 20.5467 69.7574 20.5675 69.8164 20.609C69.8754 20.6447 69.955 20.7783 70.0553 21.0098L73.1526 28.5083Z" stroke="black" stroke-opacity="0.25" stroke-width="0.5" mask="url(#path-3-outside-1)"/>
<path d="M34.4813 40.3446V43.043H38.021C38.2982 43.043 38.4723 43.0786 38.5431 43.1499C38.6139 43.2211 38.6493 43.3962 38.6493 43.6753V44.4679C38.6493 44.7469 38.6139 44.9221 38.5431 44.9933C38.4723 45.0646 38.2982 45.1002 38.021 45.1002H34.4813V48.3864H38.198C38.4693 48.3864 38.6404 48.422 38.7112 48.4932C38.782 48.5645 38.8174 48.7396 38.8174 49.0187V49.8112C38.8174 50.0903 38.782 50.2654 38.7112 50.3367C38.6404 50.4079 38.4693 50.4435 38.198 50.4435H32.7557C32.4784 50.4435 32.3043 50.4079 32.2336 50.3367C32.1628 50.2654 32.1274 50.0903 32.1274 49.8112V38.9197C32.1274 38.6406 32.1628 38.4655 32.2336 38.3943C32.3043 38.323 32.4784 38.2874 32.7557 38.2874H38.198C38.4634 38.2874 38.6345 38.326 38.7112 38.4032C38.782 38.4744 38.8174 38.6466 38.8174 38.9197V39.7123C38.8174 39.9913 38.782 40.1665 38.7112 40.2377C38.6404 40.309 38.4693 40.3446 38.198 40.3446H34.4813Z" stroke="black" stroke-opacity="0.25" stroke-width="0.5" mask="url(#path-3-outside-1)"/>
<path d="M41.1005 49.8112V38.9197C41.1005 38.6406 41.1359 38.4655 41.2067 38.3943C41.2775 38.323 41.4515 38.2874 41.7288 38.2874H44.5517C46.3157 38.2874 47.764 38.7535 48.8967 39.6856C49.6283 40.2912 50.1858 41.0422 50.5692 41.9387C50.8937 42.7046 51.0559 43.5061 51.0559 44.3432C51.0559 45.6078 50.702 46.7596 49.994 47.7986C49.2684 48.8673 48.3245 49.6153 47.1623 50.0428C46.4307 50.31 45.5546 50.4435 44.534 50.4435H41.7288C41.4515 50.4435 41.2775 50.4079 41.2067 50.3367C41.1359 50.2654 41.1005 50.0903 41.1005 49.8112ZM43.4544 48.3864H44.0827C44.8497 48.3864 45.4868 48.3121 45.9942 48.1637C46.5074 48.0093 46.9528 47.763 47.3304 47.4245C47.7375 47.0564 48.056 46.6023 48.2861 46.062C48.5162 45.5158 48.6312 44.9488 48.6312 44.361C48.6312 43.5476 48.4189 42.8025 47.9941 42.1257C47.5988 41.4964 47.0944 41.0422 46.4809 40.7632C45.8732 40.4841 45.0738 40.3446 44.0827 40.3446H43.4544V48.3864Z" stroke="black" stroke-opacity="0.25" stroke-width="0.5" mask="url(#path-3-outside-1)"/>
<path d="M55.5956 38.9197V49.8112C55.5956 50.0903 55.5602 50.2654 55.4894 50.3367C55.4186 50.4079 55.2475 50.4435 54.9762 50.4435H53.87C53.5927 50.4435 53.4187 50.4079 53.3479 50.3367C53.2771 50.2654 53.2417 50.0903 53.2417 49.8112V38.9197C53.2417 38.6406 53.2771 38.4655 53.3479 38.3943C53.4187 38.323 53.5927 38.2874 53.87 38.2874H54.9762C55.2475 38.2874 55.4186 38.323 55.4894 38.3943C55.5602 38.4655 55.5956 38.6406 55.5956 38.9197Z" stroke="black" stroke-opacity="0.25" stroke-width="0.5" mask="url(#path-3-outside-1)"/>
<path d="M59.8344 40.3446H57.7548C57.4776 40.3446 57.3035 40.309 57.2327 40.2377C57.1619 40.1665 57.1265 39.9913 57.1265 39.7123V38.9197C57.1265 38.6406 57.1619 38.4655 57.2327 38.3943C57.3035 38.323 57.4776 38.2874 57.7548 38.2874H64.2767C64.5481 38.2874 64.7222 38.326 64.7988 38.4032C64.8696 38.4744 64.905 38.6466 64.905 38.9197V39.7123C64.905 39.9913 64.8696 40.1665 64.7988 40.2377C64.7281 40.309 64.554 40.3446 64.2767 40.3446H62.1883V49.8112C62.1883 50.0903 62.1529 50.2654 62.0821 50.3367C62.0113 50.4079 61.8373 50.4435 61.56 50.4435H60.4627C60.1854 50.4435 60.0114 50.4079 59.9406 50.3367C59.8698 50.2654 59.8344 50.0903 59.8344 49.8112V40.3446Z" stroke="black" stroke-opacity="0.25" stroke-width="0.5" mask="url(#path-3-outside-1)"/>
<path d="M68.7987 38.9197V49.8112C68.7987 50.0903 68.7633 50.2654 68.6925 50.3367C68.6217 50.4079 68.4506 50.4435 68.1793 50.4435H67.0731C66.7958 50.4435 66.6218 50.4079 66.551 50.3367C66.4802 50.2654 66.4448 50.0903 66.4448 49.8112V38.9197C66.4448 38.6406 66.4802 38.4655 66.551 38.3943C66.6218 38.323 66.7958 38.2874 67.0731 38.2874H68.1793C68.4506 38.2874 68.6217 38.323 68.6925 38.3943C68.7633 38.4655 68.7987 38.6406 68.7987 38.9197Z" stroke="black" stroke-opacity="0.25" stroke-width="0.5" mask="url(#path-3-outside-1)"/>
<path d="M77.4533 38.0113C79.3529 38.0113 80.934 38.6911 82.1965 40.0507C83.3233 41.2619 83.8867 42.7016 83.8867 44.3699C83.8867 45.5158 83.6006 46.5785 83.0283 47.5581C82.4443 48.5734 81.639 49.363 80.6125 49.927C79.645 50.4554 78.5624 50.7196 77.3648 50.7196C76.2793 50.7196 75.2616 50.4673 74.3118 49.9626C73.1968 49.3749 72.3414 48.5407 71.7455 47.4602C71.2264 46.5221 70.9668 45.4623 70.9668 44.2809C70.9668 42.4701 71.6629 40.9324 73.0552 39.6678C73.7514 39.0325 74.5478 38.5813 75.4445 38.3141C76.123 38.1122 76.7926 38.0113 77.4533 38.0113ZM77.4356 40.1754C76.3147 40.1754 75.3649 40.585 74.5861 41.4044C73.7956 42.2296 73.4003 43.233 73.4003 44.4145C73.4003 44.931 73.5065 45.4505 73.7189 45.9729C73.9313 46.4895 74.2204 46.9407 74.5861 47.3266C75.3649 48.1459 76.3117 48.5556 77.4267 48.5556C78.5477 48.5556 79.5004 48.1459 80.2851 47.3266C81.0697 46.5013 81.462 45.5128 81.462 44.361C81.462 43.8029 81.3588 43.2656 81.1523 42.7491C80.9458 42.2266 80.6567 41.7784 80.2851 41.4044C79.4768 40.585 78.527 40.1754 77.4356 40.1754Z" stroke="black" stroke-opacity="0.25" stroke-width="0.5" mask="url(#path-3-outside-1)"/>
<path d="M95.0456 46.4716V38.9197C95.0456 38.6406 95.081 38.4655 95.1518 38.3943C95.2226 38.323 95.3967 38.2874 95.6739 38.2874H96.7712C97.0485 38.2874 97.2226 38.323 97.2933 38.3943C97.3641 38.4655 97.3995 38.6406 97.3995 38.9197V50.0606C97.3995 50.3337 97.3641 50.5059 97.2933 50.5771C97.2226 50.6484 97.0485 50.684 96.7712 50.684H96.196C95.9719 50.684 95.8362 50.6721 95.789 50.6484C95.7418 50.6306 95.6444 50.5385 95.4969 50.3723L88.4087 42.2237V49.8112C88.4087 50.0903 88.3733 50.2654 88.3025 50.3367C88.2317 50.4079 88.0606 50.4435 87.7892 50.4435H86.6831C86.4058 50.4435 86.2318 50.4079 86.161 50.3367C86.0902 50.2654 86.0548 50.0903 86.0548 49.8112V38.6347C86.0548 38.3557 86.0902 38.1835 86.161 38.1182C86.2318 38.0469 86.4058 38.0113 86.6831 38.0113H87.2671C87.4913 38.0113 87.6241 38.0202 87.6653 38.038C87.7125 38.0558 87.8099 38.1508 87.9574 38.323L95.0456 46.4716Z" stroke="black" stroke-opacity="0.25" stroke-width="0.5" mask="url(#path-3-outside-1)"/>
<path d="M106.939 39.9082L106.488 40.5049C106.317 40.7364 106.166 40.8522 106.036 40.8522C105.972 40.8522 105.915 40.8374 105.868 40.8077C105.821 40.778 105.691 40.6711 105.479 40.4871C105.343 40.3802 105.14 40.2852 104.868 40.2021C104.597 40.119 104.346 40.0774 104.116 40.0774C103.597 40.0774 103.175 40.2258 102.851 40.5227C102.562 40.7839 102.417 41.0867 102.417 41.4311C102.417 41.7635 102.544 42.0367 102.798 42.2504C103.057 42.4582 103.541 42.6927 104.249 42.9539C104.921 43.1974 105.423 43.4051 105.753 43.5773C106.084 43.7436 106.387 43.9425 106.665 44.174C107.379 44.7796 107.735 45.6316 107.735 46.7299C107.735 48.042 107.278 49.0691 106.364 49.8112C105.597 50.4287 104.65 50.7374 103.523 50.7374C102.615 50.7374 101.792 50.5148 101.054 50.0695C100.659 49.832 100.299 49.55 99.9747 49.2235C99.6561 48.891 99.4968 48.6416 99.4968 48.4754C99.4968 48.3685 99.5942 48.2201 99.7888 48.0301L100.391 47.4424C100.585 47.2524 100.73 47.1574 100.824 47.1574C100.942 47.1574 101.051 47.2167 101.152 47.3355C101.423 47.6739 101.597 47.8787 101.674 47.95C101.75 48.0212 101.877 48.1073 102.054 48.2082C102.497 48.4517 102.963 48.5734 103.452 48.5734C104.06 48.5734 104.535 48.3774 104.877 47.9856C105.166 47.6591 105.311 47.285 105.311 46.8635C105.311 46.3588 105.09 45.9492 104.647 45.6345C104.435 45.4802 103.877 45.2367 102.975 44.9043C102.054 44.5718 101.376 44.2185 100.939 43.8445C100.308 43.3102 99.9924 42.571 99.9924 41.627C99.9924 40.3446 100.523 39.365 101.585 38.6881C102.222 38.2844 102.951 38.0826 103.771 38.0826C104.349 38.0826 104.939 38.1865 105.541 38.3943C106.149 38.5961 106.641 38.8603 107.019 39.1869C107.119 39.27 107.169 39.3709 107.169 39.4896C107.169 39.5728 107.092 39.7123 106.939 39.9082Z" stroke="black" stroke-opacity="0.25" stroke-width="0.5" mask="url(#path-3-outside-1)"/>
</svg>
