<svg width="71" height="50" viewBox="0 0 71 50" fill="none" xmlns="http://www.w3.org/2000/svg">
<rect x="0.75" y="0.75" width="69.5" height="48.5" stroke="white" stroke-width="1.5"/>
<path d="M14.9021 15.2422H11.4963L10.8799 16.6887C10.8107 16.8433 10.7558 16.9349 10.7151 16.9634C10.6744 16.9878 10.5706 17 10.4038 17H9.57983C9.43335 17 9.33569 16.9898 9.28687 16.9695C9.19735 16.9288 9.15259 16.8596 9.15259 16.762C9.15259 16.7131 9.18107 16.6195 9.23804 16.4812L12.4973 8.80908C12.5136 8.76839 12.5278 8.73381 12.54 8.70532C12.5767 8.60767 12.6174 8.54867 12.6621 8.52832C12.7109 8.50391 12.8147 8.4917 12.9734 8.4917H13.5044C13.6753 8.4917 13.7811 8.50594 13.8218 8.53442C13.8625 8.56291 13.9154 8.65649 13.9805 8.81519L17.1482 16.4812C17.2052 16.6195 17.2336 16.7131 17.2336 16.762C17.2336 16.8515 17.2011 16.9146 17.136 16.9512C17.075 16.9837 16.9651 17 16.8064 17H15.9641C15.7932 17 15.6854 16.9858 15.6406 16.9573C15.5999 16.9288 15.5491 16.8352 15.488 16.6765L14.9021 15.2422ZM14.3955 13.9238L13.2236 10.927L12.0151 13.9238H14.3955Z" fill="white"/>
<path d="M18.3323 16.5667V9.10205C18.3323 8.91081 18.3567 8.79077 18.4055 8.74194C18.4543 8.69312 18.5744 8.6687 18.7656 8.6687H20.7126C21.9293 8.6687 22.9282 8.98812 23.7095 9.62695C24.214 10.042 24.5986 10.5567 24.863 11.1711C25.0868 11.696 25.1987 12.2454 25.1987 12.8191C25.1987 13.6858 24.9546 14.4752 24.4663 15.1873C23.9658 15.9197 23.3148 16.4324 22.5132 16.7253C22.0086 16.9084 21.4044 17 20.7004 17H18.7656C18.5744 17 18.4543 16.9756 18.4055 16.9268C18.3567 16.8779 18.3323 16.7579 18.3323 16.5667ZM19.9558 15.5901H20.3892C20.9181 15.5901 21.3576 15.5392 21.7075 15.4375C22.0615 15.3317 22.3687 15.1628 22.6292 14.9309C22.9099 14.6786 23.1296 14.3674 23.2883 13.9971C23.447 13.6227 23.5264 13.2341 23.5264 12.8313C23.5264 12.2738 23.3799 11.7632 23.0869 11.2993C22.8143 10.868 22.4664 10.5567 22.0432 10.3655C21.6241 10.1742 21.0728 10.0786 20.3892 10.0786H19.9558V15.5901Z" fill="white"/>
<path d="M11.5818 21.1021V25.4355C11.5818 25.8628 11.5981 26.1741 11.6306 26.3694C11.6672 26.5606 11.7384 26.7478 11.8442 26.9309C11.9867 27.171 12.1881 27.3602 12.4485 27.4985C12.7089 27.6369 12.9958 27.7061 13.3091 27.7061C13.6224 27.7061 13.9093 27.6369 14.1697 27.4985C14.4301 27.3602 14.6315 27.171 14.7739 26.9309C14.8797 26.7478 14.9489 26.5606 14.9814 26.3694C15.0181 26.1741 15.0364 25.8628 15.0364 25.4355V21.1021C15.0364 20.9108 15.0608 20.7908 15.1096 20.7419C15.1584 20.6931 15.2764 20.6687 15.4636 20.6687H16.2266C16.4178 20.6687 16.5378 20.6931 16.5867 20.7419C16.6355 20.7908 16.6599 20.9108 16.6599 21.1021V25.759C16.6599 26.7112 16.4565 27.4538 16.0496 27.9868C15.7362 28.3978 15.3131 28.707 14.78 28.9146C14.3121 29.0977 13.8218 29.1892 13.3091 29.1892C12.536 29.1892 11.8564 29.002 11.2705 28.6277C10.6805 28.2452 10.2919 27.7142 10.1047 27.0347C10.0071 26.6847 9.95825 26.2595 9.95825 25.759V21.1021C9.95825 20.9108 9.98267 20.7908 10.0315 20.7419C10.0803 20.6931 10.2004 20.6687 10.3916 20.6687H11.1545C11.3417 20.6687 11.4597 20.6931 11.5085 20.7419C11.5574 20.7908 11.5818 20.9108 11.5818 21.1021Z" fill="white"/>
<path d="M23.1541 21.7795L22.8428 22.1885C22.7248 22.3472 22.621 22.4265 22.5315 22.4265C22.4867 22.4265 22.4481 22.4163 22.4155 22.396C22.383 22.3757 22.2935 22.3024 22.147 22.1763C22.0534 22.103 21.913 22.0379 21.7258 21.981C21.5387 21.924 21.3657 21.8955 21.207 21.8955C20.849 21.8955 20.558 21.9972 20.3342 22.2007C20.1348 22.3797 20.0352 22.5872 20.0352 22.8232C20.0352 23.0511 20.1226 23.2383 20.2976 23.3848C20.4766 23.5272 20.8103 23.6879 21.2986 23.8669C21.7625 24.0338 22.1083 24.1762 22.3362 24.2942C22.564 24.4081 22.7736 24.5444 22.9648 24.7031C23.4572 25.1182 23.7034 25.7021 23.7034 26.4548C23.7034 27.3541 23.388 28.058 22.7573 28.5667C22.2284 28.9898 21.5753 29.2014 20.7981 29.2014C20.1715 29.2014 19.6038 29.0488 19.0952 28.7437C18.8226 28.5809 18.5744 28.3876 18.3506 28.1638C18.1309 27.936 18.021 27.7651 18.021 27.6511C18.021 27.5779 18.0881 27.4762 18.2224 27.3459L18.6375 26.9431C18.7717 26.8129 18.8714 26.7478 18.9365 26.7478C19.0179 26.7478 19.0932 26.7885 19.1624 26.8699C19.3495 27.1018 19.4696 27.2422 19.5225 27.291C19.5754 27.3398 19.6628 27.3988 19.7849 27.468C20.0901 27.6348 20.4115 27.7183 20.7493 27.7183C21.1684 27.7183 21.4959 27.584 21.7319 27.3154C21.9313 27.0916 22.031 26.8353 22.031 26.5464C22.031 26.2005 21.8784 25.9198 21.5732 25.7041C21.4268 25.5983 21.0422 25.4315 20.4197 25.2036C19.7849 24.9757 19.317 24.7336 19.0159 24.4773C18.5805 24.1111 18.3628 23.6045 18.3628 22.9575C18.3628 22.0786 18.729 21.4072 19.4614 20.9434C19.9009 20.6667 20.4034 20.5283 20.969 20.5283C21.3678 20.5283 21.7747 20.5995 22.1897 20.7419C22.6088 20.8803 22.9486 21.0614 23.209 21.2852C23.2782 21.3421 23.3127 21.4113 23.3127 21.4927C23.3127 21.5496 23.2598 21.6453 23.1541 21.7795Z" fill="white"/>
<path d="M26.7673 21.1021V25.4355C26.7673 25.8628 26.7836 26.1741 26.8162 26.3694C26.8528 26.5606 26.924 26.7478 27.0298 26.9309C27.1722 27.171 27.3736 27.3602 27.634 27.4985C27.8944 27.6369 28.1813 27.7061 28.4946 27.7061C28.8079 27.7061 29.0948 27.6369 29.3552 27.4985C29.6156 27.3602 29.8171 27.171 29.9595 26.9309C30.0653 26.7478 30.1344 26.5606 30.167 26.3694C30.2036 26.1741 30.2219 25.8628 30.2219 25.4355V21.1021C30.2219 20.9108 30.2463 20.7908 30.2952 20.7419C30.344 20.6931 30.462 20.6687 30.6492 20.6687H31.4121C31.6034 20.6687 31.7234 20.6931 31.7722 20.7419C31.821 20.7908 31.8455 20.9108 31.8455 21.1021V25.759C31.8455 26.7112 31.642 27.4538 31.2351 27.9868C30.9218 28.3978 30.4986 28.707 29.9656 28.9146C29.4976 29.0977 29.0073 29.1892 28.4946 29.1892C27.7215 29.1892 27.042 29.002 26.4561 28.6277C25.866 28.2452 25.4775 27.7142 25.2903 27.0347C25.1926 26.6847 25.1438 26.2595 25.1438 25.759V21.1021C25.1438 20.9108 25.1682 20.7908 25.217 20.7419C25.2659 20.6931 25.3859 20.6687 25.5771 20.6687H26.3401C26.5273 20.6687 26.6453 20.6931 26.6941 20.7419C26.7429 20.7908 26.7673 20.9108 26.7673 21.1021Z" fill="white"/>
<path d="M38.2542 25.9666L40.4941 20.8213C40.5592 20.6667 40.6121 20.5771 40.6528 20.5527C40.6935 20.5243 40.7993 20.51 40.9702 20.51H41.3486C41.5317 20.51 41.6457 20.5304 41.6904 20.571C41.7393 20.6077 41.7779 20.7155 41.8064 20.8945L43.0515 28.53C43.0719 28.644 43.082 28.7192 43.082 28.7559C43.082 28.8494 43.0515 28.9146 42.9905 28.9512C42.9294 28.9837 42.8175 29 42.6548 29H41.8918C41.7087 29 41.5928 28.9797 41.5439 28.939C41.4992 28.8983 41.4646 28.7884 41.4402 28.6094L40.7505 23.8669L38.5898 28.7986C38.5776 28.8311 38.5634 28.8657 38.5471 28.9023C38.4861 29.0407 38.3803 29.1099 38.2297 29.1099C38.128 29.1099 38.0588 29.0936 38.0222 29.061C37.9897 29.0326 37.9408 28.943 37.8757 28.7925L35.7944 23.8669L35.0193 28.6155C35.0111 28.6602 35.005 28.6969 35.001 28.7253C34.9806 28.8433 34.944 28.9186 34.8911 28.9512C34.8382 28.9837 34.7284 29 34.5615 29H33.8047C33.6419 29 33.53 28.9837 33.469 28.9512C33.408 28.9146 33.3774 28.8474 33.3774 28.7498C33.3774 28.7131 33.3876 28.6379 33.408 28.5239L34.8057 20.8945C34.8382 20.7155 34.8769 20.6077 34.9216 20.571C34.9664 20.5304 35.0803 20.51 35.2634 20.51H35.6357C35.8066 20.51 35.9124 20.5243 35.9531 20.5527C35.9938 20.5771 36.0487 20.6687 36.1179 20.8274L38.2542 25.9666Z" fill="white"/>
<path d="M11.5818 34.0786V35.928H14.0232C14.2144 35.928 14.3345 35.9524 14.3833 36.0012C14.4321 36.05 14.4565 36.1701 14.4565 36.3613V36.9045C14.4565 37.0958 14.4321 37.2158 14.3833 37.2646C14.3345 37.3135 14.2144 37.3379 14.0232 37.3379H11.5818V39.5901H14.1453C14.3324 39.5901 14.4504 39.6145 14.4993 39.6633C14.5481 39.7122 14.5725 39.8322 14.5725 40.0234V40.5667C14.5725 40.7579 14.5481 40.8779 14.4993 40.9268C14.4504 40.9756 14.3324 41 14.1453 41H10.3916C10.2004 41 10.0803 40.9756 10.0315 40.9268C9.98267 40.8779 9.95825 40.7579 9.95825 40.5667V33.1021C9.95825 32.9108 9.98267 32.7908 10.0315 32.7419C10.0803 32.6931 10.2004 32.6687 10.3916 32.6687H14.1453C14.3284 32.6687 14.4464 32.6952 14.4993 32.748C14.5481 32.7969 14.5725 32.9149 14.5725 33.1021V33.6453C14.5725 33.8365 14.5481 33.9565 14.4993 34.0054C14.4504 34.0542 14.3324 34.0786 14.1453 34.0786H11.5818Z" fill="white"/>
<path d="M16.1472 40.5667V33.1021C16.1472 32.9108 16.1716 32.7908 16.2205 32.7419C16.2693 32.6931 16.3893 32.6687 16.5806 32.6687H18.5276C19.7442 32.6687 20.7432 32.9881 21.5244 33.627C22.029 34.042 22.4135 34.5567 22.678 35.1711C22.9018 35.696 23.0137 36.2454 23.0137 36.8191C23.0137 37.6858 22.7695 38.4752 22.2812 39.1873C21.7808 39.9197 21.1297 40.4324 20.3281 40.7253C19.8236 40.9084 19.2193 41 18.5154 41H16.5806C16.3893 41 16.2693 40.9756 16.2205 40.9268C16.1716 40.8779 16.1472 40.7579 16.1472 40.5667ZM17.7708 39.5901H18.2041C18.7331 39.5901 19.1725 39.5392 19.5225 39.4375C19.8765 39.3317 20.1837 39.1628 20.4441 38.9309C20.7249 38.6786 20.9446 38.3673 21.1033 37.9971C21.262 37.6227 21.3413 37.2341 21.3413 36.8313C21.3413 36.2738 21.1948 35.7632 20.9019 35.2993C20.6292 34.868 20.2813 34.5567 19.8582 34.3655C19.439 34.1742 18.8877 34.0786 18.2041 34.0786H17.7708V39.5901Z" fill="white"/>
<path d="M26.1448 33.1021V40.5667C26.1448 40.7579 26.1204 40.8779 26.0715 40.9268C26.0227 40.9756 25.9047 41 25.7175 41H24.9546C24.7633 41 24.6433 40.9756 24.5945 40.9268C24.5457 40.8779 24.5212 40.7579 24.5212 40.5667V33.1021C24.5212 32.9108 24.5457 32.7908 24.5945 32.7419C24.6433 32.6931 24.7633 32.6687 24.9546 32.6687H25.7175C25.9047 32.6687 26.0227 32.6931 26.0715 32.7419C26.1204 32.7908 26.1448 32.9108 26.1448 33.1021Z" fill="white"/>
<path d="M29.0684 34.0786H27.634C27.4428 34.0786 27.3228 34.0542 27.2739 34.0054C27.2251 33.9565 27.2007 33.8365 27.2007 33.6453V33.1021C27.2007 32.9108 27.2251 32.7908 27.2739 32.7419C27.3228 32.6931 27.4428 32.6687 27.634 32.6687H32.1323C32.3195 32.6687 32.4395 32.6952 32.4924 32.748C32.5413 32.7969 32.5657 32.9149 32.5657 33.1021V33.6453C32.5657 33.8365 32.5413 33.9565 32.4924 34.0054C32.4436 34.0542 32.3236 34.0786 32.1323 34.0786H30.6919V40.5667C30.6919 40.7579 30.6675 40.8779 30.6187 40.9268C30.5698 40.9756 30.4498 41 30.2585 41H29.5017C29.3105 41 29.1904 40.9756 29.1416 40.9268C29.0928 40.8779 29.0684 40.7579 29.0684 40.5667V34.0786Z" fill="white"/>
<path d="M35.2512 33.1021V40.5667C35.2512 40.7579 35.2268 40.8779 35.178 40.9268C35.1292 40.9756 35.0111 41 34.824 41H34.061C33.8698 41 33.7498 40.9756 33.7009 40.9268C33.6521 40.8779 33.6277 40.7579 33.6277 40.5667V33.1021C33.6277 32.9108 33.6521 32.7908 33.7009 32.7419C33.7498 32.6931 33.8698 32.6687 34.061 32.6687H34.824C35.0111 32.6687 35.1292 32.6931 35.178 32.7419C35.2268 32.7908 35.2512 32.9108 35.2512 33.1021Z" fill="white"/>
<path d="M41.2205 32.4795C42.5307 32.4795 43.6212 32.9454 44.4919 33.8772C45.2691 34.7073 45.6577 35.694 45.6577 36.8374C45.6577 37.6227 45.4604 38.3511 45.0657 39.0225C44.6628 39.7183 44.1074 40.2594 43.3994 40.646C42.7321 41.0081 41.9854 41.1892 41.1594 41.1892C40.4107 41.1892 39.7088 41.0163 39.0537 40.6704C38.2847 40.2676 37.6947 39.6959 37.2837 38.9553C36.9256 38.3124 36.7466 37.5861 36.7466 36.7764C36.7466 35.5353 37.2267 34.4814 38.187 33.6147C38.6672 33.1794 39.2165 32.8701 39.835 32.687C40.3029 32.5487 40.7647 32.4795 41.2205 32.4795ZM41.2083 33.9626C40.4351 33.9626 39.78 34.2434 39.2429 34.8049C38.6977 35.3705 38.425 36.0582 38.425 36.8679C38.425 37.2219 38.4983 37.578 38.6448 37.936C38.7913 38.29 38.9906 38.5993 39.2429 38.8638C39.78 39.4253 40.4331 39.7061 41.2021 39.7061C41.9753 39.7061 42.6324 39.4253 43.1736 38.8638C43.7148 38.2982 43.9854 37.6207 43.9854 36.8313C43.9854 36.4488 43.9141 36.0806 43.7717 35.7266C43.6293 35.3685 43.4299 35.0613 43.1736 34.8049C42.6161 34.2434 41.961 33.9626 41.2083 33.9626Z" fill="white"/>
<path d="M53.3542 38.2778V33.1021C53.3542 32.9108 53.3787 32.7908 53.4275 32.7419C53.4763 32.6931 53.5964 32.6687 53.7876 32.6687H54.5444C54.7357 32.6687 54.8557 32.6931 54.9045 32.7419C54.9534 32.7908 54.9778 32.9108 54.9778 33.1021V40.7375C54.9778 40.9247 54.9534 41.0427 54.9045 41.0916C54.8557 41.1404 54.7357 41.1648 54.5444 41.1648H54.1477C53.9931 41.1648 53.8995 41.1567 53.8669 41.1404C53.8344 41.1282 53.7673 41.0651 53.6655 40.9512L48.7766 35.3665V40.5667C48.7766 40.7579 48.7522 40.8779 48.7034 40.9268C48.6545 40.9756 48.5365 41 48.3494 41H47.5864C47.3952 41 47.2751 40.9756 47.2263 40.9268C47.1775 40.8779 47.1531 40.7579 47.1531 40.5667V32.9067C47.1531 32.7155 47.1775 32.5975 47.2263 32.5527C47.2751 32.5039 47.3952 32.4795 47.5864 32.4795H47.9893C48.1439 32.4795 48.2354 32.4856 48.2639 32.4978C48.2965 32.51 48.3636 32.5751 48.4653 32.6931L53.3542 38.2778Z" fill="white"/>
<path d="M61.5574 33.7795L61.2461 34.1885C61.1281 34.3472 61.0243 34.4265 60.9348 34.4265C60.8901 34.4265 60.8514 34.4163 60.8188 34.396C60.7863 34.3757 60.6968 34.3024 60.5503 34.1763C60.4567 34.103 60.3163 34.0379 60.1292 33.981C59.942 33.924 59.769 33.8955 59.6104 33.8955C59.2523 33.8955 58.9613 33.9972 58.7375 34.2007C58.5382 34.3797 58.4385 34.5872 58.4385 34.8232C58.4385 35.0511 58.526 35.2383 58.7009 35.3848C58.88 35.5272 59.2136 35.6879 59.7019 35.8669C60.1658 36.0338 60.5116 36.1762 60.7395 36.2942C60.9674 36.4081 61.1769 36.5444 61.3682 36.7031C61.8605 37.1182 62.1067 37.7021 62.1067 38.4548C62.1067 39.3541 61.7913 40.058 61.1606 40.5667C60.6317 40.9898 59.9786 41.2014 59.2014 41.2014C58.5748 41.2014 58.0072 41.0488 57.4985 40.7437C57.2259 40.5809 56.9777 40.3876 56.7539 40.1638C56.5342 39.936 56.4243 39.7651 56.4243 39.6511C56.4243 39.5779 56.4915 39.4762 56.6257 39.3459L57.0408 38.9431C57.175 38.8129 57.2747 38.7478 57.3398 38.7478C57.4212 38.7478 57.4965 38.7885 57.5657 38.8699C57.7528 39.1018 57.8729 39.2422 57.9258 39.291C57.9787 39.3398 58.0662 39.3988 58.1882 39.468C58.4934 39.6348 58.8149 39.7183 59.1526 39.7183C59.5717 39.7183 59.8993 39.584 60.1353 39.3154C60.3346 39.0916 60.4343 38.8353 60.4343 38.5464C60.4343 38.2005 60.2817 37.9198 59.9766 37.7041C59.8301 37.5983 59.4456 37.4315 58.823 37.2036C58.1882 36.9757 57.7203 36.7336 57.4192 36.4773C56.9838 36.1111 56.7661 35.6045 56.7661 34.9575C56.7661 34.0786 57.1323 33.4072 57.8647 32.9434C58.3042 32.6667 58.8067 32.5283 59.3723 32.5283C59.7711 32.5283 60.178 32.5995 60.593 32.7419C61.0121 32.8803 61.3519 33.0614 61.6123 33.2852C61.6815 33.3421 61.7161 33.4113 61.7161 33.4927C61.7161 33.5496 61.6632 33.6453 61.5574 33.7795Z" fill="white"/>
</svg>
