<svg width="71" height="40" viewBox="0 0 71 40" fill="none" xmlns="http://www.w3.org/2000/svg">
<rect x="0.75" y="0.75" width="69.5" height="38.5" stroke="white" stroke-width="1.5"/>
<path d="M14.7495 15.7505H11.3438L10.7273 17.197C10.6581 17.3516 10.6032 17.4432 10.5625 17.4717C10.5218 17.4961 10.4181 17.5083 10.2512 17.5083H9.42725C9.28076 17.5083 9.18311 17.4981 9.13428 17.4778C9.04476 17.4371 9 17.3679 9 17.2703C9 17.2214 9.02848 17.1278 9.08545 16.9895L12.3447 9.31738C12.361 9.27669 12.3752 9.24211 12.3875 9.21362C12.4241 9.11597 12.4648 9.05697 12.5095 9.03662C12.5583 9.01221 12.6621 9 12.8208 9H13.3518C13.5227 9 13.6285 9.01424 13.6692 9.04272C13.7099 9.07121 13.7628 9.16479 13.8279 9.32349L16.9956 16.9895C17.0526 17.1278 17.0811 17.2214 17.0811 17.2703C17.0811 17.3598 17.0485 17.4229 16.9834 17.4595C16.9224 17.492 16.8125 17.5083 16.6538 17.5083H15.8115C15.6406 17.5083 15.5328 17.4941 15.488 17.4656C15.4473 17.4371 15.3965 17.3435 15.3354 17.1848L14.7495 15.7505ZM14.2429 14.4321L13.071 11.4353L11.8625 14.4321H14.2429Z" fill="white"/>
<path d="M18.1797 17.075V9.61035C18.1797 9.41911 18.2041 9.29907 18.2529 9.25024C18.3018 9.20142 18.4218 9.177 18.613 9.177H20.5601C21.7767 9.177 22.7756 9.49642 23.5569 10.1353C24.0614 10.5503 24.446 11.065 24.7104 11.6794C24.9342 12.2043 25.0461 12.7537 25.0461 13.3274C25.0461 14.1941 24.802 14.9835 24.3137 15.6956C23.8132 16.428 23.1622 16.9407 22.3606 17.2336C21.856 17.4167 21.2518 17.5083 20.5479 17.5083H18.613C18.4218 17.5083 18.3018 17.4839 18.2529 17.4351C18.2041 17.3862 18.1797 17.2662 18.1797 17.075ZM19.8032 16.0984H20.2366C20.7655 16.0984 21.205 16.0475 21.5549 15.9458C21.9089 15.84 22.2161 15.6711 22.4766 15.4392C22.7573 15.1869 22.9771 14.8757 23.1357 14.5054C23.2944 14.131 23.3738 13.7424 23.3738 13.3396C23.3738 12.7821 23.2273 12.2715 22.9343 11.8076C22.6617 11.3763 22.3138 11.065 21.8906 10.8738C21.4715 10.6825 20.9202 10.5869 20.2366 10.5869H19.8032V16.0984Z" fill="white"/>
<path d="M29.9351 9.61035V13.9438C29.9351 14.3711 29.9513 14.6824 29.9839 14.8777C30.0205 15.0689 30.0917 15.2561 30.1975 15.4392C30.3399 15.6793 30.5413 15.8685 30.8018 16.0068C31.0622 16.1452 31.349 16.2144 31.6624 16.2144C31.9757 16.2144 32.2625 16.1452 32.5229 16.0068C32.7834 15.8685 32.9848 15.6793 33.1272 15.4392C33.233 15.2561 33.3022 15.0689 33.3347 14.8777C33.3713 14.6824 33.3896 14.3711 33.3896 13.9438V9.61035C33.3896 9.41911 33.4141 9.29907 33.4629 9.25024C33.5117 9.20142 33.6297 9.177 33.8169 9.177H34.5798C34.7711 9.177 34.8911 9.20142 34.9399 9.25024C34.9888 9.29907 35.0132 9.41911 35.0132 9.61035V14.2673C35.0132 15.2195 34.8097 15.9621 34.4028 16.4951C34.0895 16.9061 33.6663 17.2153 33.1333 17.4229C32.6654 17.606 32.175 17.6975 31.6624 17.6975C30.8892 17.6975 30.2097 17.5103 29.6238 17.136C29.0338 16.7535 28.6452 16.2225 28.458 15.543C28.3604 15.193 28.3115 14.7678 28.3115 14.2673V9.61035C28.3115 9.41911 28.3359 9.29907 28.3848 9.25024C28.4336 9.20142 28.5536 9.177 28.7449 9.177H29.5078C29.695 9.177 29.813 9.20142 29.8618 9.25024C29.9106 9.29907 29.9351 9.41911 29.9351 9.61035Z" fill="white"/>
<path d="M41.5073 10.2878L41.196 10.6968C41.078 10.8555 40.9743 10.9348 40.8848 10.9348C40.84 10.9348 40.8014 10.9246 40.7688 10.9043C40.7362 10.884 40.6467 10.8107 40.5002 10.6846C40.4067 10.6113 40.2663 10.5462 40.0791 10.4893C39.8919 10.4323 39.719 10.4038 39.5603 10.4038C39.2022 10.4038 38.9113 10.5055 38.6875 10.709C38.4881 10.888 38.3884 11.0955 38.3884 11.3315C38.3884 11.5594 38.4759 11.7466 38.6509 11.8931C38.8299 12.0355 39.1636 12.1962 39.6519 12.3752C40.1157 12.5421 40.4616 12.6845 40.6895 12.8025C40.9173 12.9164 41.1269 13.0527 41.3181 13.2114C41.8105 13.6265 42.0566 14.2104 42.0566 14.9631C42.0566 15.8624 41.7413 16.5663 41.1106 17.075C40.5816 17.4981 39.9285 17.7097 39.1514 17.7097C38.5247 17.7097 37.9571 17.5571 37.4485 17.252C37.1759 17.0892 36.9277 16.8959 36.7039 16.6721C36.4841 16.4443 36.3743 16.2734 36.3743 16.1594C36.3743 16.0862 36.4414 15.9845 36.5757 15.8542L36.9907 15.4514C37.125 15.3212 37.2247 15.2561 37.2898 15.2561C37.3712 15.2561 37.4465 15.2968 37.5156 15.3782C37.7028 15.6101 37.8228 15.7505 37.8757 15.7993C37.9286 15.8481 38.0161 15.9071 38.1382 15.9763C38.4434 16.1431 38.7648 16.2266 39.1025 16.2266C39.5216 16.2266 39.8492 16.0923 40.0852 15.8237C40.2846 15.5999 40.3843 15.3436 40.3843 15.0547C40.3843 14.7088 40.2317 14.4281 39.9265 14.2124C39.78 14.1066 39.3955 13.9398 38.7729 13.7119C38.1382 13.484 37.6702 13.2419 37.3691 12.9856C36.9338 12.6194 36.7161 12.1128 36.7161 11.4658C36.7161 10.5869 37.0823 9.91553 37.8147 9.45166C38.2542 9.17497 38.7567 9.03662 39.3223 9.03662C39.721 9.03662 40.1279 9.10783 40.543 9.25024C40.9621 9.38859 41.3018 9.56966 41.5623 9.79346C41.6314 9.85042 41.666 9.9196 41.666 10.001C41.666 10.0579 41.6131 10.1536 41.5073 10.2878Z" fill="white"/>
<path d="M45.1206 9.61035V13.9438C45.1206 14.3711 45.1369 14.6824 45.1694 14.8777C45.2061 15.0689 45.2773 15.2561 45.3831 15.4392C45.5255 15.6793 45.7269 15.8685 45.9873 16.0068C46.2477 16.1452 46.5346 16.2144 46.8479 16.2144C47.1612 16.2144 47.4481 16.1452 47.7085 16.0068C47.9689 15.8685 48.1703 15.6793 48.3127 15.4392C48.4185 15.2561 48.4877 15.0689 48.5203 14.8777C48.5569 14.6824 48.5752 14.3711 48.5752 13.9438V9.61035C48.5752 9.41911 48.5996 9.29907 48.6484 9.25024C48.6973 9.20142 48.8153 9.177 49.0024 9.177H49.7654C49.9566 9.177 50.0767 9.20142 50.1255 9.25024C50.1743 9.29907 50.1987 9.41911 50.1987 9.61035V14.2673C50.1987 15.2195 49.9953 15.9621 49.5884 16.4951C49.2751 16.9061 48.8519 17.2153 48.3188 17.4229C47.8509 17.606 47.3606 17.6975 46.8479 17.6975C46.0748 17.6975 45.3953 17.5103 44.8093 17.136C44.2193 16.7535 43.8307 16.2225 43.6436 15.543C43.5459 15.193 43.4971 14.7678 43.4971 14.2673V9.61035C43.4971 9.41911 43.5215 9.29907 43.5703 9.25024C43.6191 9.20142 43.7392 9.177 43.9304 9.177H44.6934C44.8805 9.177 44.9985 9.20142 45.0474 9.25024C45.0962 9.29907 45.1206 9.41911 45.1206 9.61035Z" fill="white"/>
<path d="M56.6074 14.4749L58.8474 9.32959C58.9125 9.17497 58.9654 9.08545 59.0061 9.06104C59.0468 9.03255 59.1526 9.01831 59.3235 9.01831H59.7019C59.885 9.01831 59.9989 9.03866 60.0437 9.07935C60.0925 9.11597 60.1312 9.2238 60.1597 9.40283L61.4048 17.0383C61.4251 17.1523 61.4353 17.2275 61.4353 17.2642C61.4353 17.3577 61.4048 17.4229 61.3438 17.4595C61.2827 17.492 61.1708 17.5083 61.0081 17.5083H60.2451C60.062 17.5083 59.946 17.488 59.8972 17.4473C59.8525 17.4066 59.8179 17.2967 59.7935 17.1177L59.1038 12.3752L56.9431 17.3069C56.9309 17.3394 56.9167 17.374 56.9004 17.4106C56.8394 17.549 56.7336 17.6182 56.583 17.6182C56.4813 17.6182 56.4121 17.6019 56.3755 17.5693C56.3429 17.5409 56.2941 17.4513 56.229 17.3008L54.1477 12.3752L53.3726 17.1238C53.3644 17.1685 53.3583 17.2052 53.3542 17.2336C53.3339 17.3516 53.2973 17.4269 53.2444 17.4595C53.1915 17.492 53.0816 17.5083 52.9148 17.5083H52.158C51.9952 17.5083 51.8833 17.492 51.8223 17.4595C51.7612 17.4229 51.7307 17.3557 51.7307 17.2581C51.7307 17.2214 51.7409 17.1462 51.7612 17.0322L53.1589 9.40283C53.1915 9.2238 53.2301 9.11597 53.2749 9.07935C53.3197 9.03866 53.4336 9.01831 53.6167 9.01831H53.989C54.1599 9.01831 54.2657 9.03255 54.3064 9.06104C54.3471 9.08545 54.402 9.177 54.4712 9.33569L56.6074 14.4749Z" fill="white"/>
<path d="M11.4048 23.2883V25.1377H13.8462C14.0374 25.1377 14.1575 25.1621 14.2063 25.2109C14.2551 25.2598 14.2795 25.3798 14.2795 25.571V26.1143C14.2795 26.3055 14.2551 26.4255 14.2063 26.4744C14.1575 26.5232 14.0374 26.5476 13.8462 26.5476H11.4048V28.7998H13.9683C14.1554 28.7998 14.2734 28.8242 14.3223 28.873C14.3711 28.9219 14.3955 29.0419 14.3955 29.2332V29.7764C14.3955 29.9676 14.3711 30.0876 14.3223 30.1365C14.2734 30.1853 14.1554 30.2097 13.9683 30.2097H10.2146C10.0234 30.2097 9.90332 30.1853 9.85449 30.1365C9.80566 30.0876 9.78125 29.9676 9.78125 29.7764V22.3118C9.78125 22.1205 9.80566 22.0005 9.85449 21.9517C9.90332 21.9028 10.0234 21.8784 10.2146 21.8784H13.9683C14.1514 21.8784 14.2694 21.9049 14.3223 21.9578C14.3711 22.0066 14.3955 22.1246 14.3955 22.3118V22.855C14.3955 23.0462 14.3711 23.1663 14.3223 23.2151C14.2734 23.2639 14.1554 23.2883 13.9683 23.2883H11.4048Z" fill="white"/>
<path d="M15.9702 29.7764V22.3118C15.9702 22.1205 15.9946 22.0005 16.0435 21.9517C16.0923 21.9028 16.2123 21.8784 16.4036 21.8784H18.3506C19.5672 21.8784 20.5662 22.1978 21.3474 22.8367C21.852 23.2517 22.2365 23.7664 22.501 24.3809C22.7248 24.9058 22.8367 25.4551 22.8367 26.0288C22.8367 26.8955 22.5925 27.6849 22.1042 28.397C21.6038 29.1294 20.9527 29.6421 20.1511 29.9351C19.6466 30.1182 19.0423 30.2097 18.3384 30.2097H16.4036C16.2123 30.2097 16.0923 30.1853 16.0435 30.1365C15.9946 30.0876 15.9702 29.9676 15.9702 29.7764ZM17.5938 28.7998H18.0271C18.5561 28.7998 18.9955 28.7489 19.3455 28.6472C19.6995 28.5414 20.0067 28.3726 20.2671 28.1406C20.5479 27.8883 20.7676 27.5771 20.9263 27.2068C21.085 26.8324 21.1643 26.4438 21.1643 26.041C21.1643 25.4836 21.0178 24.9729 20.7249 24.509C20.4522 24.0777 20.1043 23.7664 19.6812 23.5752C19.262 23.384 18.7107 23.2883 18.0271 23.2883H17.5938V28.7998Z" fill="white"/>
<path d="M25.9678 22.3118V29.7764C25.9678 29.9676 25.9434 30.0876 25.8945 30.1365C25.8457 30.1853 25.7277 30.2097 25.5405 30.2097H24.7776C24.5863 30.2097 24.4663 30.1853 24.4175 30.1365C24.3687 30.0876 24.3442 29.9676 24.3442 29.7764V22.3118C24.3442 22.1205 24.3687 22.0005 24.4175 21.9517C24.4663 21.9028 24.5863 21.8784 24.7776 21.8784H25.5405C25.7277 21.8784 25.8457 21.9028 25.8945 21.9517C25.9434 22.0005 25.9678 22.1205 25.9678 22.3118Z" fill="white"/>
<path d="M28.8914 23.2883H27.457C27.2658 23.2883 27.1458 23.2639 27.0969 23.2151C27.0481 23.1663 27.0237 23.0462 27.0237 22.855V22.3118C27.0237 22.1205 27.0481 22.0005 27.0969 21.9517C27.1458 21.9028 27.2658 21.8784 27.457 21.8784H31.9553C32.1425 21.8784 32.2625 21.9049 32.3154 21.9578C32.3643 22.0066 32.3887 22.1246 32.3887 22.3118V22.855C32.3887 23.0462 32.3643 23.1663 32.3154 23.2151C32.2666 23.2639 32.1466 23.2883 31.9553 23.2883H30.5149V29.7764C30.5149 29.9676 30.4905 30.0876 30.4417 30.1365C30.3928 30.1853 30.2728 30.2097 30.0815 30.2097H29.3247C29.1335 30.2097 29.0134 30.1853 28.9646 30.1365C28.9158 30.0876 28.8914 29.9676 28.8914 29.7764V23.2883Z" fill="white"/>
<path d="M35.0742 22.3118V29.7764C35.0742 29.9676 35.0498 30.0876 35.001 30.1365C34.9521 30.1853 34.8341 30.2097 34.647 30.2097H33.884C33.6928 30.2097 33.5728 30.1853 33.5239 30.1365C33.4751 30.0876 33.4507 29.9676 33.4507 29.7764V22.3118C33.4507 22.1205 33.4751 22.0005 33.5239 21.9517C33.5728 21.9028 33.6928 21.8784 33.884 21.8784H34.647C34.8341 21.8784 34.9521 21.9028 35.001 21.9517C35.0498 22.0005 35.0742 22.1205 35.0742 22.3118Z" fill="white"/>
<path d="M41.0435 21.6892C42.3537 21.6892 43.4442 22.1551 44.3149 23.0869C45.0921 23.917 45.4807 24.9037 45.4807 26.0471C45.4807 26.8324 45.2834 27.5608 44.8887 28.2322C44.4858 28.928 43.9304 29.4692 43.2224 29.8557C42.5551 30.2179 41.8084 30.3989 40.9824 30.3989C40.2337 30.3989 39.5318 30.226 38.8767 29.8801C38.1077 29.4773 37.5177 28.9056 37.1067 28.165C36.7486 27.5221 36.5696 26.7958 36.5696 25.9861C36.5696 24.745 37.0497 23.6912 38.01 22.8245C38.4902 22.3891 39.0395 22.0798 39.658 21.8967C40.1259 21.7584 40.5877 21.6892 41.0435 21.6892ZM41.0312 23.1724C40.2581 23.1724 39.603 23.4531 39.0659 24.0146C38.5207 24.5802 38.248 25.2679 38.248 26.0776C38.248 26.4316 38.3213 26.7877 38.4678 27.1458C38.6143 27.4998 38.8136 27.809 39.0659 28.0735C39.603 28.635 40.2561 28.9158 41.0251 28.9158C41.7983 28.9158 42.4554 28.635 42.9966 28.0735C43.5378 27.5079 43.8083 26.8304 43.8083 26.041C43.8083 25.6585 43.7371 25.2903 43.5947 24.9363C43.4523 24.5782 43.2529 24.271 42.9966 24.0146C42.4391 23.4531 41.784 23.1724 41.0312 23.1724Z" fill="white"/>
<path d="M53.1772 27.4875V22.3118C53.1772 22.1205 53.2017 22.0005 53.2505 21.9517C53.2993 21.9028 53.4194 21.8784 53.6106 21.8784H54.3674C54.5587 21.8784 54.6787 21.9028 54.7275 21.9517C54.7764 22.0005 54.8008 22.1205 54.8008 22.3118V29.9473C54.8008 30.1344 54.7764 30.2524 54.7275 30.3013C54.6787 30.3501 54.5587 30.3745 54.3674 30.3745H53.9707C53.8161 30.3745 53.7225 30.3664 53.6899 30.3501C53.6574 30.3379 53.5903 30.2748 53.4885 30.1609L48.5996 24.5762V29.7764C48.5996 29.9676 48.5752 30.0876 48.5264 30.1365C48.4775 30.1853 48.3595 30.2097 48.1724 30.2097H47.4094C47.2182 30.2097 47.0981 30.1853 47.0493 30.1365C47.0005 30.0876 46.9761 29.9676 46.9761 29.7764V22.1165C46.9761 21.9252 47.0005 21.8072 47.0493 21.7625C47.0981 21.7136 47.2182 21.6892 47.4094 21.6892H47.8123C47.9669 21.6892 48.0584 21.6953 48.0869 21.7075C48.1195 21.7197 48.1866 21.7848 48.2883 21.9028L53.1772 27.4875Z" fill="white"/>
<path d="M61.3804 22.9893L61.0691 23.3982C60.9511 23.5569 60.8473 23.6362 60.7578 23.6362C60.7131 23.6362 60.6744 23.6261 60.6418 23.6057C60.6093 23.5854 60.5198 23.5121 60.3733 23.386C60.2797 23.3127 60.1393 23.2476 59.9521 23.1907C59.765 23.1337 59.592 23.1052 59.4333 23.1052C59.0753 23.1052 58.7843 23.2069 58.5605 23.4104C58.3612 23.5894 58.2615 23.797 58.2615 24.033C58.2615 24.2608 58.349 24.448 58.5239 24.5945C58.703 24.7369 59.0366 24.8976 59.5249 25.0767C59.9888 25.2435 60.3346 25.3859 60.5625 25.5039C60.7904 25.6178 60.9999 25.7542 61.1912 25.9128C61.6835 26.3279 61.9297 26.9118 61.9297 27.6646C61.9297 28.5638 61.6143 29.2677 60.9836 29.7764C60.4547 30.1995 59.8016 30.4111 59.0244 30.4111C58.3978 30.4111 57.8302 30.2585 57.3215 29.9534C57.0489 29.7906 56.8007 29.5973 56.5769 29.3735C56.3572 29.1457 56.2473 28.9748 56.2473 28.8608C56.2473 28.7876 56.3145 28.6859 56.4487 28.5557L56.8638 28.1528C56.998 28.0226 57.0977 27.9575 57.1628 27.9575C57.2442 27.9575 57.3195 27.9982 57.3887 28.0796C57.5758 28.3115 57.6959 28.4519 57.7488 28.5007C57.8017 28.5496 57.8892 28.6086 58.0112 28.6777C58.3164 28.8446 58.6379 28.928 58.9756 28.928C59.3947 28.928 59.7222 28.7937 59.9583 28.5251C60.1576 28.3014 60.2573 28.045 60.2573 27.7561C60.2573 27.4102 60.1047 27.1295 59.7996 26.9138C59.6531 26.808 59.2686 26.6412 58.646 26.4133C58.0112 26.1855 57.5433 25.9434 57.2422 25.687C56.8068 25.3208 56.5891 24.8142 56.5891 24.1672C56.5891 23.2883 56.9553 22.6169 57.6877 22.1531C58.1272 21.8764 58.6297 21.738 59.1953 21.738C59.5941 21.738 60.001 21.8092 60.416 21.9517C60.8351 22.09 61.1749 22.2711 61.4353 22.4949C61.5045 22.5518 61.5391 22.621 61.5391 22.7024C61.5391 22.7594 61.4862 22.855 61.3804 22.9893Z" fill="white"/>
</svg>
