<svg width="75" height="50" viewBox="0 0 75 50" fill="none" xmlns="http://www.w3.org/2000/svg">
<path d="M13.4605 28.5513H8.18V36H13.5638V34.348H10.0975V33.0352H13.018V31.4422H10.0975V30.2032H13.4605V28.5513ZM17.6131 34.348V30.2032H18.4686C19.2946 30.2032 20.2976 30.9702 20.2976 32.2535C20.2976 33.581 19.5306 34.348 18.4833 34.348H17.6131ZM18.3506 36C20.6221 36 22.2593 34.6577 22.2593 32.283C22.2593 30.041 20.5336 28.5513 18.3358 28.5513H15.6956V36H18.3506ZM26.1692 28.5513H24.2517V36H26.1692V28.5513ZM34.5999 30.2032V28.5513H28.1984V30.2032H30.4404V36H32.3579V30.2032H34.5999ZM38.55 28.5513H36.6325V36H38.55V28.5513ZM48.4999 32.3125C48.4999 29.8935 46.5677 28.4037 44.5322 28.4037C42.4524 28.4037 40.5349 29.9377 40.5349 32.3125C40.5349 34.466 42.2017 36.1475 44.5322 36.1475C46.9364 36.1475 48.4999 34.407 48.4999 32.3125ZM46.5382 32.283C46.5382 33.6547 45.6532 34.466 44.5617 34.466C43.2047 34.466 42.5114 33.4187 42.5114 32.283C42.5114 30.8817 43.4997 30.0852 44.5174 30.0852C45.6089 30.0852 46.5382 30.9702 46.5382 32.283ZM51.5737 28.5513H50.3494V36H52.2669V31.7667H52.3407L56.3527 36H57.5769V28.5513H55.6594V32.7697H55.5857L51.5737 28.5513ZM59.4707 35.292C59.9132 35.705 61.0047 36.1475 62.288 36.1475C64.0727 36.1475 65.3412 35.41 65.3412 34.0087C65.3412 32.991 64.7955 32.3125 63.173 31.5602C62.0225 31.0292 61.7127 30.8522 61.7127 30.5425C61.7127 30.2622 61.9635 30.0262 62.524 30.0262C63.2172 30.0262 63.94 30.2475 64.6922 30.6457L65.1347 29.1117C64.4562 28.684 63.5417 28.4037 62.5092 28.4037C60.6655 28.4037 59.7657 29.4805 59.7657 30.5425C59.7657 31.6045 60.4 32.1502 61.9045 32.8582C62.8632 33.3007 63.35 33.4777 63.35 33.9202C63.35 34.2152 63.0697 34.525 62.3765 34.525C61.521 34.525 60.6507 34.1562 60.0017 33.7432L59.4707 35.292Z" fill="white"/>
<path d="M10.6455 14.2113H8V23.7887H10.6455V14.2113Z" fill="white"/>
<path d="M14.3227 14.2113H12.3526V23.7887H14.9981V18.6901H15.0685L19.5011 23.7887H21.4993V14.2113H18.8538V19.3803H18.7835L14.3227 14.2113Z" fill="white"/>
<path d="M34.7302 14.2113H32.0847V19.9859C32.0847 21.2394 31.3811 21.6479 30.5086 21.6479C29.3547 21.6479 28.9326 20.8873 28.9326 19.9859V14.2113H26.2871V20.3099C26.2871 22.1127 27.2721 24 30.5086 24C33.3793 24 34.7302 22.1127 34.7302 20.1268V14.2113Z" fill="white"/>
<path d="M35.8694 22.9859C36.6153 23.5634 37.9943 24 39.4156 24C41.1605 24 43.0602 23.2394 43.0602 21.1831C43.0602 20.1127 42.638 19.0563 40.6539 18.0986C39.6548 17.6197 38.8105 17.2676 38.8105 16.831C38.8105 16.4648 39.1763 16.3662 39.5985 16.3662C40.3865 16.3662 41.259 16.6479 42.1314 17.2254L42.8491 14.9014C41.8781 14.3521 40.8087 14 39.4578 14C37.3751 14 36.165 15.3521 36.165 16.6901C36.165 18.2958 37.1641 19.1831 39.0638 20.0563C39.7674 20.3803 40.4006 20.6056 40.4006 21.0282C40.4006 21.3662 40.0629 21.6338 39.2186 21.6338C38.3742 21.6338 37.4033 21.2817 36.6434 20.7042L35.8694 22.9859Z" fill="white"/>
<path d="M52.746 14.2113H50.1005V19.9859C50.1005 21.2394 49.3969 21.6479 48.5245 21.6479C47.3706 21.6479 46.9484 20.8873 46.9484 19.9859V14.2113H44.3029V20.3099C44.3029 22.1127 45.2879 24 48.5245 24C51.3951 24 52.746 22.1127 52.746 20.1268V14.2113Z" fill="white"/>
<path d="M61.9096 19.4648L62.5287 23.7887H65.2727L63.6826 14.2113H62.0362L59.5736 19.507H59.5173L56.9703 14.2113H55.3239L53.7338 23.7887H56.4778L57.097 19.4648H57.1673L59.0811 23.7887H59.9254L61.8392 19.4648H61.9096Z" fill="white"/>
</svg>
